<?xml version="1.0" encoding="utf-8"?>
<!-- Generator: Adobe Illustrator 16.0.0, SVG Export Plug-In . SVG Version: 6.00 Build 0)  -->
<!DOCTYPE svg PUBLIC "-//W3C//DTD SVG 1.1//EN" "http://www.w3.org/Graphics/SVG/1.1/DTD/svg11.dtd">
<svg version="1.1" id="Layer_1" xmlns="http://www.w3.org/2000/svg" xmlns:xlink="http://www.w3.org/1999/xlink" x="0px" y="0px"
	 width="900px" height="170px" viewBox="0 0 900 170" enable-background="new 0 0 900 170" xml:space="preserve">
<path fill="#00263D" d="M514.41,0H385.59H0v97.95c0,3.9,3.16,7.05,7.06,7.05H76.7l0,0h192.93c26.61,0,70.57,12.32,95.13,25.24
	l63.04,36.4c1.85,1.06,3.94,1.63,6.07,1.63h32.26c2.13,0,4.22-0.56,6.08-1.63l63.04-36.39c24.56-12.92,68.52-25.24,95.13-25.24
	h151.74c0.39,0.07,0.78,0.11,1.19,0.11h109.64c3.9,0,7.06-3.16,7.06-7.06V0H514.41z"/>
<path fill="#206CFF" d="M357.06,115.61l75.14,43.38c0.5,0.29,1.08,0.45,1.66,0.45s1.16-0.16,1.66-0.45c1.03-0.6,1.67-1.61,1.67-2.88
	c0.01-22,0-32.77-4.31-40.5H357.06z"/>
<path fill="#206CFF" d="M317.99,93.05l0.96,0.56h84.3l-26.49-15.29V32h-60.44v58.17C316.33,91.35,316.96,92.46,317.99,93.05z"/>
<path fill="#F88521" d="M581.04,93.61l0.96-0.56c1.03-0.59,1.66-1.7,1.66-2.88V32h-60.44v46.31l-26.49,15.29H581.04z"/>
<path fill="#F88521" d="M467.11,115.61c-4.31,7.73-4.32,18.5-4.31,40.5c0,1.27,0.64,2.29,1.67,2.88c0.51,0.29,1.08,0.45,1.66,0.45
	c0.58,0,1.16-0.16,1.66-0.45l75.14-43.38H467.11z"/>
<linearGradient id="SVGID_1_" gradientUnits="userSpaceOnUse" x1="36.1982" y1="-15.417" x2="283.9289" y2="127.6104">
	<stop  offset="0.0913" style="stop-color:#00263D"/>
	<stop  offset="0.0949" style="stop-color:#002740"/>
	<stop  offset="0.1688" style="stop-color:#0A3C7A"/>
	<stop  offset="0.2404" style="stop-color:#124DA9"/>
	<stop  offset="0.3079" style="stop-color:#185ACF"/>
	<stop  offset="0.3703" style="stop-color:#1C64E9"/>
	<stop  offset="0.4259" style="stop-color:#1F6AF9"/>
	<stop  offset="0.4689" style="stop-color:#206CFF"/>
</linearGradient>
<path fill="url(#SVGID_1_)" d="M307.5,32H8.82v46h253.82c11.4,0,29.68,0.13,44.86,8.78L307.5,32z"/>
<linearGradient id="SVGID_2_" gradientUnits="userSpaceOnUse" x1="616.0879" y1="127.6006" x2="863.8003" y2="-15.4163">
	<stop  offset="0.5311" style="stop-color:#F88521"/>
	<stop  offset="0.568" style="stop-color:#F28322"/>
	<stop  offset="0.6158" style="stop-color:#E27D23"/>
	<stop  offset="0.6694" style="stop-color:#C87227"/>
	<stop  offset="0.7274" style="stop-color:#A2642B"/>
	<stop  offset="0.7889" style="stop-color:#735230"/>
	<stop  offset="0.8523" style="stop-color:#393C37"/>
	<stop  offset="0.9087" style="stop-color:#00263D"/>
</linearGradient>
<path fill="url(#SVGID_2_)" d="M891.18,32H592.5l0,54.73c12.9-7.35,28.03-8.54,39.28-8.73h259.4V32z"/>
</svg>
