<?xml version="1.0" encoding="utf-8"?>
<!-- Generator: Adobe Illustrator 16.0.0, SVG Export Plug-In . SVG Version: 6.00 Build 0)  -->
<!DOCTYPE svg PUBLIC "-//W3C//DTD SVG 1.1//EN" "http://www.w3.org/Graphics/SVG/1.1/DTD/svg11.dtd">
<svg version="1.1" id="Layer_1" xmlns="http://www.w3.org/2000/svg" xmlns:xlink="http://www.w3.org/1999/xlink" x="0px" y="0px"
	 width="401px" height="600px" viewBox="0 0 401 600" enable-background="new 0 0 401 600" xml:space="preserve">
<g>
	<path fill="#F88521" d="M395.45,174.7h-49.81c-2.9,0-5.26,2.36-5.26,5.25v268.7c0,1.88-1,3.61-2.63,4.55l-86.91,50.18
		c-40.96,23.65-40.96,28.21-40.94,91.36c0,2.01,1.01,3.61,2.63,4.55c0.79,0.46,1.7,0.7,2.62,0.7c0.92,0,1.83-0.25,2.63-0.71
		l180.29-104.09c1.62-0.94,2.63-2.68,2.63-4.55v-310.7C400.71,177.06,398.34,174.7,395.45,174.7"/>
	<path fill="#206CFF" d="M5.55,174.7h49.81c2.9,0,5.26,2.36,5.26,5.25v268.7c0,1.88,1,3.61,2.63,4.55l86.91,50.18
		c40.97,23.65,40.97,28.21,40.94,91.36c0,2.01-1.01,3.61-2.63,4.55c-0.8,0.46-1.7,0.7-2.63,0.7c-0.92,0-1.83-0.25-2.63-0.71
		L2.92,495.21c-1.62-0.94-2.63-2.68-2.63-4.55v-310.7C0.29,177.06,2.65,174.7,5.55,174.7"/>
	<g>
		<g>
			<polygon fill="#206CFF" points="89.01,395.63 93.15,402.79 97.29,409.97 171.48,384.39 168.49,379.22 162.59,380.49 
				154.89,367.15 147.18,353.81 151.24,349.34 148.25,344.16 			"/>
			<polygon fill="#206CFF" points="303.71,409.96 307.85,402.79 312,395.63 252.74,344.16 249.75,349.33 253.81,353.81 
				246.11,367.15 238.4,380.49 232.5,379.22 229.51,384.39 			"/>
			<polygon fill="#206CFF" points="208.78,216.86 200.5,216.86 192.21,216.86 177.27,293.9 183.25,293.91 185.08,288.15 
				200.5,288.15 215.91,288.15 217.75,293.9 223.72,293.91 			"/>
			<path fill="#FFFFFF" d="M227.57,325.2c8.62,14.92,3.49,34.08-11.45,42.7c-14.92,8.62-34.09,3.49-42.7-11.44
				c-8.62-14.93-3.5-34.09,11.45-42.71C199.79,305.12,218.95,310.25,227.57,325.2z"/>
			<path fill="#F88521" d="M234.97,273.11c5.32,1.54,18.89,13.79,18.89,13.79c3.45,2.99,7.01,6.85,12.3,16.01
				c5.29,9.16,6.85,14.16,7.71,18.65c0,0,3.82,17.88,2.5,23.26l31.87,27.68c5.79-8.35,15.91-29.83,10.33-37.53
				c-8.32-11.49-17.29-7.72-36.61-41.17c-19.32-33.46-11.56-39.36-17.36-52.3c-3.88-8.69-27.55-10.66-37.68-9.82L234.97,273.11z"/>
			<path fill="#F88521" d="M124.63,344.81c-1.32-5.38,2.49-23.25,2.49-23.25c0.87-4.49,2.43-9.49,7.73-18.66
				c5.28-9.16,8.84-13.01,12.29-16c0,0,13.58-12.26,18.89-13.8l8.04-41.43c-10.13-0.84-33.78,1.14-37.67,9.81
				c-5.79,12.94,1.96,18.84-17.36,52.3c-19.32,33.46-28.3,29.69-36.61,41.18c-5.58,7.7,4.55,29.18,10.35,37.53L124.63,344.81z"/>
			<path fill="#F88521" d="M241.89,404.52c-3.98,3.83-21.39,9.46-21.39,9.46c-4.3,1.5-9.42,2.65-20,2.65
				c-10.58,0-15.7-1.15-20.02-2.65c0,0-17.4-5.63-21.38-9.47l-39.9,13.76c4.33,9.19,17.88,28.7,27.33,27.72
				c14.11-1.46,15.33-11.12,53.96-11.12c38.64,0.01,39.87,9.66,53.98,11.12c9.45,0.98,23-18.53,27.33-27.72L241.89,404.52z"/>
		</g>
	</g>
	<g>
		<path fill="#FFFFFF" d="M116.55,150.41L79.4,86.05l23.54-13.59c4.79-3.04,7.97-8.39,7.97-14.48V17.13
			C110.91,7.67,103.24,0,93.78,0H5.33C2.75,0,0.65,2.09,0.65,4.68v145.74c0,2.58,2.1,4.68,4.68,4.68h24.9
			c2.58,0,4.68-2.09,4.68-4.68v-38.68l14.83-8.56L77,150.41c1.49,2.58,4.8,4.68,7.38,4.68h30.2
			C117.16,155.09,118.04,153,116.55,150.41z M34.9,34.25h41.75v13.83L34.9,72.18V34.25z"/>
		<path fill="#FFFFFF" d="M366.09,34.25v13.89c0,2.58,2.1,3.47,4.68,1.98l24.9-14.38c2.58-1.49,4.68-4.79,4.68-7.38V17.13
			c0-9.46-7.66-17.13-17.12-17.13h-76c-9.46,0-17.13,7.67-17.13,17.13v120.84c0,9.46,7.67,17.13,17.13,17.13h76
			c9.46,0,17.12-7.67,17.12-17.13v-11.24c0-2.58-2.09-5.89-4.68-7.38l-24.9-14.38c-2.58-1.49-4.68-0.6-4.68,1.98v13.89h-41.75V34.25
			H366.09z"/>
		<path fill="#FFFFFF" d="M221.01,34.25v13.89c0,2.58,2.1,3.47,4.68,1.98l24.9-14.38c2.58-1.49,4.68-4.79,4.68-7.38V17.13
			C255.26,7.67,247.6,0,238.14,0h-76c-9.46,0-17.13,7.67-17.13,17.13v4.59v7.85V51.7v3.91c0,6.09,3.18,11.44,7.97,14.48l0,0v0.01
			l68.03,39.28v11.47h-41.75l0-13.89c0-2.58-2.09-3.47-4.68-1.98l-24.9,14.38c-2.58,1.49-4.68,4.79-4.68,7.38v11.24
			c0,9.46,7.67,17.13,17.13,17.13h76c9.46,0,17.12-7.67,17.12-17.13v-4.59v-7.85v-22.13v-3.91c0-6.09-3.17-11.44-7.96-14.48l0,0l0,0
			l-68.03-39.28V34.25H221.01z"/>
	</g>
</g>
</svg>
