<?xml version="1.0" encoding="utf-8"?>
<!-- Generator: Adobe Illustrator 16.0.0, SVG Export Plug-In . SVG Version: 6.00 Build 0)  -->
<!DOCTYPE svg PUBLIC "-//W3C//DTD SVG 1.1//EN" "http://www.w3.org/Graphics/SVG/1.1/DTD/svg11.dtd">
<svg version="1.1" id="Layer_1" xmlns="http://www.w3.org/2000/svg" xmlns:xlink="http://www.w3.org/1999/xlink" x="0px" y="0px"
	 width="100px" height="100px" viewBox="0 0 100 100" enable-background="new 0 0 100 100" xml:space="preserve">
<g>
	<polygon points="49.96,23.33 57.53,38.68 74.47,41.14 62.21,53.09 65.11,69.96 49.96,62 34.81,69.96 37.7,53.09 25.44,41.14 
		42.38,38.68 	"/>
	<path d="M46.51,86.4c0,0-15.1,2.12-17.44-3.49C32.13,82.65,43.48,78.88,46.51,86.4z"/>
	<path d="M32.61,81.82c-5.77,0.8-11.38-4.03-12.1-9.86C22.87,72.16,30.61,74.62,32.61,81.82z"/>
	<path d="M21.85,71.21c-7.22-0.99-10.12-7.64-9.13-11.66C14.71,60.34,21.56,63.05,21.85,71.21z"/>
	<path d="M13.46,59.38C7.69,54.62,8.7,45.87,12.05,43C13.32,44.75,18.24,52.31,13.46,59.38z"/>
	<path d="M11.46,42.3l0.76-0.65l0.58,0.81c0.22,0.3,0.5,0.71,0.8,1.21c5.47-4.05,4.77-11.24,4.49-13.09c-3.83,0.75-8.16,6.23-7,12.1
		C11.21,42.55,11.33,42.41,11.46,42.3z"/>
	<path d="M18.93,29.51c0.16,0.76,0.07,2.23,0.19,2.84c7.01-1.93,9.44-9.62,9.86-11.55c-4.12-0.72-10.53,3.06-11.57,9.3
		C17.98,29.85,18.38,29.79,18.93,29.51z"/>
	<path d="M30.24,20.1c-0.07,0.77-0.14,0.96-0.34,1.46c7.27,0.14,11.86-5.56,12.82-7.3c-3.75-1.86-10.96-0.06-13.73,5.63
		C29.59,19.82,29.93,19.85,30.24,20.1z"/>
	<path d="M12.68,33.22c6.57-3.41,7.04-13.4,7.04-16.14C13.97,20.57,9.51,30.36,12.68,33.22z"/>
	<path d="M27.59,19.8c3.09-3.12,4.94-7.25,5.1-9.4c-6.29,1.3-13.68,8.87-12.56,12.81C22.3,21.14,25.07,19.91,27.59,19.8z"/>
	<path d="M41.71,13.15c3.77-2.25,5.51-5.25,6.19-7.29c-5.59,3.13-14.47,2.47-15.52,8.96C34.99,13.35,36.93,12.24,41.71,13.15z"/>
	<path d="M8.42,50.4c0.09-1.83-1.94-5.87-2.5-6.47c-2.04,5.84-1.15,13.94,5.71,18.48c-0.11-1.34,0.03-2.39,0.15-3.36
		C9.64,56.79,8.24,53.76,8.42,50.4z"/>
	<path d="M11.1,35.32c0.81-1.64,0.06-5.06-0.21-5.83c-4.2,4.55-6.67,10.77-2.18,17.67c0.43-1.28,0.98-2.18,1.48-3.02
		C9.13,41.2,9.6,38.33,11.1,35.32z"/>
	<path d="M13.54,67.16c-0.51-0.75-0.81-1.59-1.1-2.41c-1.2-2.62-3.55-2.85-5.26-4.42c-1.11,5.28,3.54,14.25,13.28,15.96
		c-0.13-1.75-0.51-3.3-1.02-4.71C17,70.77,14.95,69.25,13.54,67.16z"/>
	<path d="M46.46,87.21H33.78c-2.13,0.45-3.91,1.33-4.71,2.87C31.25,91.42,44.26,93.54,46.46,87.21z"/>
	<path d="M28.22,83.26l-0.45-1.07c-2.48-0.88-4.67-2.62-6.17-4.86c-2.01-0.76-4.2-1.36-6.01-0.88c1.6,3.74,9.99,12.74,16.29,10.01
		C30.04,85.72,28.81,84.66,28.22,83.26z"/>
	<path d="M53.41,86.4c0,0,15.1,2.12,17.44-3.49C67.79,82.65,56.44,78.88,53.41,86.4z"/>
	<path d="M67.3,81.82c5.77,0.8,11.38-4.03,12.1-9.86C77.05,72.16,69.3,74.62,67.3,81.82z"/>
	<path d="M78.07,71.21c7.22-0.99,10.12-7.64,9.13-11.66C85.21,60.34,78.35,63.05,78.07,71.21z"/>
	<path d="M86.46,59.38c5.77-4.76,4.76-13.51,1.41-16.38C86.59,44.75,81.67,52.31,86.46,59.38z"/>
	<path d="M88.46,42.3l-0.76-0.65l-0.58,0.81c-0.22,0.3-0.5,0.71-0.8,1.21c-5.47-4.05-4.77-11.24-4.49-13.09
		c3.83,0.75,8.16,6.23,7,12.1C88.71,42.55,88.59,42.41,88.46,42.3z"/>
	<path d="M80.99,29.51c-0.16,0.76-0.07,2.23-0.19,2.84c-7.01-1.93-9.44-9.62-9.86-11.55c4.12-0.72,10.53,3.06,11.57,9.3
		C81.94,29.85,81.54,29.79,80.99,29.51z"/>
	<path d="M69.67,20.1c0.07,0.77,0.14,0.96,0.34,1.46c-7.27,0.14-11.86-5.56-12.81-7.3c3.75-1.86,10.96-0.06,13.73,5.63
		C70.33,19.82,69.99,19.85,69.67,20.1z"/>
	<path d="M87.24,33.22c-6.57-3.41-7.04-13.4-7.04-16.14C85.94,20.57,90.4,30.36,87.24,33.22z"/>
	<path d="M72.32,19.8c-3.09-3.12-4.94-7.25-5.1-9.4c6.29,1.3,13.68,8.87,12.56,12.81C77.62,21.14,74.85,19.91,72.32,19.8z"/>
	<path d="M58.21,13.15c-3.77-2.25-5.51-5.25-6.19-7.29c5.59,3.13,14.47,2.47,15.52,8.96C64.93,13.35,62.98,12.24,58.21,13.15z"/>
	<path d="M91.5,50.4c-0.09-1.83,1.94-5.87,2.5-6.47c2.04,5.84,1.15,13.94-5.71,18.48c0.12-1.34-0.03-2.39-0.15-3.36
		C90.28,56.79,91.67,53.76,91.5,50.4z"/>
	<path d="M88.81,35.32c-0.81-1.64-0.07-5.06,0.21-5.83c4.2,4.55,6.67,10.77,2.18,17.67c-0.43-1.28-0.98-2.18-1.48-3.02
		C90.79,41.2,90.31,38.33,88.81,35.32z"/>
	<path d="M86.38,67.16c0.51-0.75,0.81-1.59,1.1-2.41c1.2-2.62,3.55-2.85,5.26-4.42c1.11,5.28-3.54,14.25-13.28,15.96
		c0.13-1.75,0.51-3.3,1.02-4.71C82.91,70.77,84.96,69.25,86.38,67.16z"/>
	<path d="M53.46,87.21h12.67c2.13,0.45,3.91,1.33,4.71,2.87C68.66,91.42,55.66,93.54,53.46,87.21z"/>
	<path d="M71.69,83.26l0.45-1.07c2.48-0.88,4.67-2.62,6.17-4.86c2.01-0.76,4.2-1.36,6.01-0.88c-1.6,3.74-9.99,12.74-16.29,10.01
		C69.88,85.72,71.11,84.66,71.69,83.26z"/>
	<path d="M53,91.17c0,0.55-0.43,1-0.96,1h-4.18c-0.53,0-0.96-0.45-0.96-1V84.8c0-0.55,0.43-1,0.96-1h4.18c0.53,0,0.96,0.45,0.96,1
		V91.17z"/>
</g>
</svg>
