<?xml version="1.0" encoding="utf-8"?>
<!-- Generator: Adobe Illustrator 16.0.0, SVG Export Plug-In . SVG Version: 6.00 Build 0)  -->
<!DOCTYPE svg PUBLIC "-//W3C//DTD SVG 1.1//EN" "http://www.w3.org/Graphics/SVG/1.1/DTD/svg11.dtd">
<svg version="1.1" xmlns="http://www.w3.org/2000/svg" xmlns:xlink="http://www.w3.org/1999/xlink" x="0px" y="0px" width="900px"
	 height="170px" viewBox="0 0 900 170" enable-background="new 0 0 900 170" xml:space="preserve">
<g id="Layer_2" display="none">
	
		<image display="inline" overflow="visible" width="1920" height="1080" xlink:href="75FE3399.jpg"  transform="matrix(1 0 0 1 -510 0)">
	</image>
</g>
<g id="Layer_1" display="none">
	<g display="inline">
		<path fill="#FC7C0C" d="M71.98,1357.79h-21.3c-1.24,0-2.25,1.01-2.25,2.25v114.9c0,0.8-0.43,1.54-1.12,1.95l-37.17,21.46
			c-17.52,10.12-17.52,12.06-17.51,39.07c0,0.86,0.43,1.54,1.13,1.95c0.34,0.2,0.73,0.3,1.12,0.3c0.39,0,0.78-0.11,1.12-0.3
			l77.1-44.51c0.69-0.4,1.12-1.15,1.12-1.95v-132.86C74.23,1358.79,73.22,1357.79,71.98,1357.79"/>
		<path fill="#0C88FC" d="M-94.76,1357.79h21.3c1.24,0,2.25,1.01,2.25,2.25v114.9c0,0.8,0.43,1.54,1.12,1.95l37.17,21.46
			c17.52,10.12,17.52,12.06,17.51,39.07c0,0.86-0.43,1.54-1.13,1.95c-0.34,0.2-0.73,0.3-1.12,0.3c-0.39,0-0.78-0.11-1.12-0.3
			l-77.1-44.51c-0.69-0.4-1.12-1.15-1.12-1.95v-132.86C-97,1358.79-95.99,1357.79-94.76,1357.79"/>
		<g>
			<g>
				<polygon fill="#001970" points="-59.07,1452.26 -57.3,1455.33 -55.53,1458.39 -23.8,1447.46 -25.08,1445.24 -27.6,1445.79 
					-30.89,1440.08 -34.19,1434.38 -32.45,1432.47 -33.73,1430.25 				"/>
				<polygon fill="#001970" points="32.75,1458.39 34.52,1455.33 36.29,1452.26 10.95,1430.25 9.67,1432.46 11.41,1434.38 
					8.12,1440.08 4.82,1445.79 2.3,1445.24 1.02,1447.46 				"/>
				<polygon fill="#001970" points="-7.85,1375.81 -11.39,1375.81 -14.93,1375.81 -21.32,1408.76 -18.76,1408.76 -17.98,1406.3 
					-11.39,1406.3 -4.8,1406.3 -4.01,1408.76 -1.46,1408.76 				"/>
				<path fill="#0C88FC" d="M0.19,1422.14c3.69,6.38,1.49,14.57-4.9,18.26c-6.38,3.69-14.58,1.49-18.26-4.89
					c-3.69-6.38-1.5-14.58,4.89-18.26C-11.69,1413.56-3.5,1415.75,0.19,1422.14z"/>
				<path fill="#FC7C0C" d="M3.35,1399.87c2.27,0.66,8.08,5.9,8.08,5.9c1.48,1.28,3,2.93,5.26,6.84c2.26,3.92,2.93,6.06,3.3,7.98
					c0,0,1.63,7.65,1.07,9.95l13.63,11.84c2.48-3.57,6.8-12.76,4.42-16.05c-3.56-4.91-7.4-3.3-15.66-17.61
					c-8.26-14.31-4.95-16.83-7.42-22.36c-1.66-3.72-11.78-4.56-16.11-4.2L3.35,1399.87z"/>
				<path fill="#FC7C0C" d="M-43.83,1430.53c-0.57-2.3,1.06-9.94,1.06-9.94c0.37-1.92,1.04-4.06,3.3-7.98
					c2.26-3.92,3.78-5.57,5.26-6.84c0,0,5.81-5.24,8.08-5.9l3.44-17.72c-4.33-0.36-14.45,0.49-16.11,4.2
					c-2.48,5.53,0.84,8.05-7.42,22.36c-8.26,14.31-12.1,12.7-15.66,17.61c-2.38,3.29,1.94,12.48,4.42,16.05L-43.83,1430.53z"/>
				<path fill="#FC7C0C" d="M6.31,1456.07c-1.7,1.64-9.15,4.05-9.15,4.05c-1.84,0.64-4.03,1.13-8.55,1.13
					c-4.53,0-6.71-0.49-8.56-1.13c0,0-7.44-2.41-9.14-4.05l-17.06,5.88c1.85,3.93,7.65,12.27,11.69,11.85
					c6.03-0.62,6.55-4.75,23.08-4.75c16.52,0,17.05,4.13,23.08,4.75c4.04,0.42,9.84-7.92,11.69-11.85L6.31,1456.07z"/>
			</g>
		</g>
		<g>
			<path fill="#001970" d="M-47.29,1347.4l-15.89-27.52l10.07-5.81c2.05-1.3,3.41-3.59,3.41-6.19v-17.47c0-4.04-3.28-7.32-7.32-7.32
				h-37.82c-1.1,0-2,0.89-2,2v62.32c0,1.1,0.9,2,2,2h10.65c1.1,0,2-0.9,2-2v-16.54l6.34-3.66l11.66,20.2c0.64,1.1,2.05,2,3.15,2
				h12.91C-47.03,1349.4-46.65,1348.5-47.29,1347.4z M-82.2,1297.73h17.85v5.91l-17.85,10.31V1297.73z"/>
			<path fill="#001970" d="M59.42,1297.73l0,5.94c0,1.1,0.9,1.48,2,0.85l10.65-6.15c1.1-0.64,2-2.05,2-3.16v-4.81
				c0-4.04-3.28-7.32-7.32-7.32h-32.5c-4.04,0-7.32,3.28-7.32,7.32v51.67c0,4.04,3.28,7.32,7.32,7.32h32.5
				c4.04,0,7.32-3.28,7.32-7.32v-4.81c0-1.11-0.9-2.52-2-3.16l-10.65-6.15c-1.1-0.64-2-0.26-2,0.85l0,5.94H41.57v-37.03H59.42z"/>
			<path fill="#001970" d="M-2.62,1297.73l0,5.94c0,1.1,0.9,1.48,2,0.85l10.65-6.15c1.1-0.64,2-2.05,2-3.16v-4.81
				c0-4.04-3.28-7.32-7.32-7.32h-32.5c-4.04,0-7.32,3.28-7.32,7.32v1.96v3.36v9.46v1.67c0,2.61,1.36,4.89,3.41,6.19l0,0v0
				l29.09,16.8v4.9h-17.85l0-5.94c0-1.1-0.9-1.48-2-0.85l-10.65,6.15c-1.1,0.64-2,2.05-2,3.16v4.81c0,4.04,3.28,7.32,7.32,7.32h32.5
				c4.04,0,7.32-3.28,7.32-7.32v-1.96v-3.36v-9.46v-1.67c0-2.61-1.36-4.89-3.41-6.19l0,0l0,0l-29.09-16.8v-4.9H-2.62z"/>
		</g>
	</g>
	<path fill="#0C88FC" d="M1153.57-360.28c-30.47-71.83-73.9-136.21-129.09-191.36c-55.15-55.1-119.5-98.45-191.28-128.85
		c-74.9-31.72-154.13-47.81-235.47-47.81h-60.95c-29.23,0-58.19,2.09-86.77,6.22c-28.58-4.13-57.54-6.22-86.77-6.22h-60.95
		c-81.35,0-160.57,16.09-235.47,47.81c-71.78,30.4-136.14,73.76-191.28,128.85c-55.19,55.15-98.62,119.53-129.09,191.36
		c-31.8,74.98-47.93,154.3-47.93,235.75V98.53c0,105.67,27.89,209.92,80.65,301.48c52.87,91.74,129.27,168.24,220.93,221.23
		l129.75,74.91l2.31,1.33c91.08,52.05,194.67,79.56,299.57,79.56c6.1,0,12.19-0.1,18.28-0.29c6.09,0.19,12.18,0.29,18.28,0.29
		c104.9,0,208.49-27.51,299.57-79.56l1.16-0.66l130.9-75.57c91.66-52.99,168.06-129.5,220.93-221.23
		c52.76-91.56,80.66-195.81,80.66-301.48v-223.06C1201.5-205.98,1185.37-285.3,1153.57-360.28z"/>
	<path display="inline" fill="#00263D" d="M450,171.45c0,0-16.12,0.48-16.23,0.49c-0.42-0.03-1.14-0.22-1.5-0.4l-114.3-65.99
		c-0.39-0.23-0.98-0.82-1.21-1.23c-0.21-0.37-0.44-1.19-0.44-1.65V-94.15c0-0.33,0.01-0.54,0.02-0.67c0.04-0.12,0.12-0.33,0.25-0.64
		c0.13-0.31,0.23-0.49,0.27-0.57c0.06-0.07,0.2-0.23,0.45-0.48c0.23-0.23,0.38-0.36,0.45-0.42c0.08-0.04,0.27-0.14,0.6-0.28
		c0.3-0.12,0.5-0.2,0.62-0.24c0.12-0.01,0.34-0.02,0.67-0.02h53.78c0.34,0,0.62,0.02,0.82,0.04l75.74,10.95l75.74-10.95
		c0.08-0.01,0.32-0.04,0.83-0.04h53.78c0.33,0,0.54,0.01,0.67,0.02c0.12,0.04,0.32,0.12,0.63,0.25c0.32,0.13,0.5,0.23,0.58,0.27
		c0.08,0.06,0.24,0.21,0.48,0.45c0.23,0.23,0.36,0.38,0.42,0.46c0.04,0.08,0.14,0.27,0.29,0.61c0.12,0.29,0.2,0.49,0.23,0.61
		c0.01,0.12,0.02,0.34,0.02,0.67v196.82c0,0.45-0.22,1.28-0.45,1.68c-0.22,0.38-0.81,0.98-1.21,1.21l0.26-0.15l-114.57,66.14
		c-0.37,0.18-1.07,0.37-1.48,0.4C466.12,171.93,450,171.45,450,171.45z"/>
	<rect x="76.7" y="90.73" display="inline" fill="#00263D" width="746.61" height="27.88"/>
	<path display="inline" fill="#00263D" d="M123.76,3.38c0-3.9-3.16-7.06-7.06-7.06H7.06C3.16-3.68,0-0.52,0,3.38v108.17
		c0,3.9,3.16,7.06,7.06,7.06H116.7c3.9,0,7.06-3.16,7.06-7.06V3.38z"/>
	<rect x="433.87" y="154.04" display="inline" fill="#00263D" width="32.26" height="26.73"/>
	<path display="inline" fill="#00263D" d="M433.87,180.76c-2.13,0-4.23-0.56-6.07-1.63l-114.22-65.94
		c-3.75-2.17-6.08-6.2-6.08-10.53V-94.16c0-6.7,5.45-12.15,12.15-12.15h53.78c6.7,0,12.15,5.45,12.15,12.15V85.72l30.09,17.37
		c13.05,7.53,21.94,13.26,26.41,23.73c3.95,9.26,3.95,20.81,3.94,41.79c0,4.38-2.27,8.31-6.06,10.51
		C438.07,180.21,435.98,180.76,433.87,180.76z"/>
	<path display="inline" fill="#0C88FC" d="M411.26,110.74l-34.5-19.92V-94.16c0-1.84-1.5-3.33-3.33-3.33h-22.22h-9.33h-22.22
		c-1.83,0-3.33,1.49-3.33,3.33v196.82c0,1.19,0.64,2.29,1.66,2.88l114.21,65.94c0.5,0.29,1.08,0.45,1.66,0.45s1.16-0.16,1.66-0.45
		c1.03-0.6,1.67-1.61,1.67-2.88C437.22,128.61,437.22,125.72,411.26,110.74z"/>
	<path display="inline" fill="#00263D" d="M466.13,180.76c-2.11,0-4.2-0.56-6.04-1.61c-3.85-2.23-6.11-6.16-6.11-10.54
		c-0.01-20.97-0.01-32.52,3.94-41.78c4.47-10.47,13.36-16.2,26.41-23.73l30.09-17.37V-94.16c0-6.7,5.45-12.15,12.15-12.15h53.78
		c6.7,0,12.15,5.45,12.15,12.15v196.82c0,4.33-2.33,8.36-6.07,10.53l-114.22,65.94C470.35,180.2,468.25,180.76,466.13,180.76z"/>
	<path display="inline" fill="#FC7C0C" d="M488.74,110.74l34.5-19.92V-94.16c0-1.84,1.5-3.33,3.33-3.33h22.22h9.33h22.22
		c1.83,0,3.33,1.49,3.33,3.33v196.82c0,1.19-0.64,2.29-1.66,2.88l-114.21,65.94c-0.5,0.29-1.08,0.45-1.66,0.45
		c-0.58,0-1.16-0.16-1.66-0.45c-1.03-0.6-1.67-1.61-1.67-2.88C462.78,128.61,462.78,125.72,488.74,110.74z"/>
	<g display="inline">
		<path fill="#FC7C0C" d="M296.26,1358.64h-21.3c-1.24,0-2.25,1.01-2.25,2.25v114.9c0,0.8-0.43,1.54-1.12,1.95l-37.17,21.46
			c-17.52,10.12-17.52,12.06-17.51,39.07c0,0.86,0.43,1.54,1.13,1.95c0.34,0.2,0.73,0.3,1.12,0.3c0.39,0,0.78-0.11,1.13-0.3
			l77.1-44.51c0.69-0.4,1.12-1.15,1.12-1.95v-132.86C298.5,1359.65,297.5,1358.64,296.26,1358.64"/>
		<path fill="#0C88FC" d="M129.52,1358.64h21.3c1.24,0,2.25,1.01,2.25,2.25v114.9c0,0.8,0.43,1.54,1.13,1.95l37.16,21.46
			c17.52,10.12,17.52,12.06,17.51,39.07c0,0.86-0.43,1.54-1.13,1.95c-0.34,0.2-0.73,0.3-1.12,0.3s-0.78-0.11-1.12-0.3l-77.1-44.51
			c-0.69-0.4-1.12-1.15-1.12-1.95v-132.86C127.28,1359.65,128.29,1358.64,129.52,1358.64"/>
		<g>
			<g>
				<polygon fill="#0C88FC" points="165.21,1453.12 166.98,1456.18 168.75,1459.25 200.48,1448.31 199.2,1446.1 196.68,1446.64 
					193.39,1440.94 190.09,1435.23 191.83,1433.32 190.55,1431.11 				"/>
				<polygon fill="#0C88FC" points="257.03,1459.25 258.8,1456.18 260.57,1453.12 235.23,1431.11 233.95,1433.32 235.69,1435.23 
					232.4,1440.94 229.1,1446.64 226.58,1446.1 225.3,1448.31 				"/>
				<polygon fill="#0C88FC" points="216.43,1376.67 212.89,1376.67 209.35,1376.67 202.96,1409.61 205.51,1409.62 206.3,1407.16 
					212.89,1407.16 219.48,1407.15 220.27,1409.61 222.82,1409.62 				"/>
				<path fill="#00263D" d="M224.47,1423c3.69,6.38,1.49,14.57-4.9,18.26c-6.38,3.69-14.58,1.49-18.26-4.89
					c-3.69-6.38-1.5-14.58,4.89-18.26C212.59,1414.41,220.78,1416.61,224.47,1423z"/>
				<path fill="#FC7C0C" d="M227.63,1400.73c2.27,0.66,8.08,5.9,8.08,5.9c1.48,1.28,3,2.93,5.26,6.84c2.26,3.92,2.93,6.06,3.29,7.98
					c0,0,1.63,7.65,1.07,9.95l13.63,11.84c2.48-3.57,6.8-12.76,4.42-16.05c-3.56-4.91-7.39-3.3-15.66-17.61
					c-8.26-14.31-4.95-16.83-7.42-22.36c-1.66-3.72-11.78-4.56-16.11-4.2L227.63,1400.73z"/>
				<path fill="#FC7C0C" d="M180.45,1431.39c-0.57-2.3,1.06-9.94,1.06-9.94c0.37-1.92,1.04-4.06,3.3-7.98
					c2.26-3.92,3.78-5.57,5.26-6.84c0,0,5.81-5.24,8.08-5.9l3.44-17.72c-4.33-0.36-14.45,0.49-16.11,4.2
					c-2.48,5.53,0.84,8.05-7.42,22.36c-8.26,14.31-12.1,12.7-15.66,17.61c-2.38,3.29,1.95,12.48,4.43,16.05L180.45,1431.39z"/>
				<path fill="#FC7C0C" d="M230.59,1456.92c-1.7,1.64-9.15,4.05-9.15,4.05c-1.84,0.64-4.03,1.13-8.55,1.13
					c-4.53,0-6.71-0.49-8.56-1.13c0,0-7.44-2.41-9.14-4.05l-17.06,5.88c1.85,3.93,7.64,12.27,11.69,11.85
					c6.03-0.62,6.55-4.75,23.07-4.75c16.53,0,17.05,4.13,23.08,4.75c4.04,0.42,9.84-7.92,11.69-11.85L230.59,1456.92z"/>
			</g>
		</g>
		<g>
			<path fill="#00263D" d="M176.99,1348.26l-15.89-27.52l10.07-5.81c2.05-1.3,3.41-3.59,3.41-6.19v-17.47
				c0-4.04-3.28-7.32-7.32-7.32h-37.82c-1.1,0-2,0.89-2,2v62.32c0,1.1,0.9,2,2,2h10.65c1.11,0,2-0.9,2-2v-16.54l6.34-3.66
				l11.66,20.2c0.64,1.1,2.05,2,3.15,2h12.91C177.25,1350.26,177.63,1349.36,176.99,1348.26z M142.08,1298.58h17.85v5.91
				l-17.85,10.31V1298.58z"/>
			<path fill="#00263D" d="M283.7,1298.58v5.94c0,1.1,0.9,1.48,2,0.85l10.65-6.15c1.11-0.64,2-2.05,2-3.16v-4.81
				c0-4.04-3.28-7.32-7.32-7.32h-32.5c-4.04,0-7.32,3.28-7.32,7.32v51.67c0,4.04,3.28,7.32,7.32,7.32h32.5
				c4.04,0,7.32-3.28,7.32-7.32v-4.81c0-1.11-0.89-2.52-2-3.16l-10.65-6.15c-1.1-0.64-2-0.26-2,0.85v5.94h-17.85v-37.03H283.7z"/>
			<path fill="#00263D" d="M221.66,1298.58v5.94c0,1.1,0.9,1.48,2,0.85l10.65-6.15c1.11-0.64,2-2.05,2-3.16v-4.81
				c0-4.04-3.28-7.32-7.32-7.32h-32.5c-4.04,0-7.32,3.28-7.32,7.32v1.96v3.36v9.46v1.67c0,2.61,1.36,4.89,3.41,6.19l0,0v0
				l29.09,16.8v4.9h-17.85l0-5.94c0-1.1-0.89-1.48-2-0.85l-10.65,6.15c-1.1,0.64-2,2.05-2,3.16v4.81c0,4.04,3.28,7.32,7.32,7.32
				h32.5c4.04,0,7.32-3.28,7.32-7.32v-1.96v-3.36v-9.46v-1.67c0-2.61-1.36-4.89-3.41-6.19l0,0l0,0l-29.09-16.8v-4.9H221.66z"/>
		</g>
	</g>
	<rect x="8.82" y="23.67" display="inline" fill="#0C88FC" width="298.68" height="67.06"/>
	<rect x="377" y="42" fill="#1E3C52" width="146" height="75"/>
	<rect x="727.08" y="-303.14" display="inline" fill="#1E3C52" width="146" height="75"/>
	<rect x="377" y="42" fill="#AB2C29" width="146" height="75"/>
	<image overflow="visible" width="1920" height="1080" xlink:href="75FE339B.jpg"  transform="matrix(1 0 0 1 -510 0)">
	</image>
	<path display="inline" fill="#FFFFFF" stroke="#231F20" stroke-miterlimit="10" d="M417.96,163.27"/>
	<line fill="none" stroke="#D7DF23" stroke-miterlimit="10" x1="222.21" y1="88.66" x2="429.83" y2="208.53"/>
	<path fill="none" stroke="#D7DF23" stroke-miterlimit="10" d="M201.67,117c69.62,0,69.91,0.16,90.21,11.88"/>
	<path display="inline" fill="#0C88FC" d="M307.51,99.5c-15.18-8.65-33.46-8.78-44.86-8.78h44.86L307.51,99.5z"/>
	<path display="inline" fill="#00263D" d="M776.24,3.38c0-3.9,3.16-7.06,7.06-7.06h109.64c3.9,0,7.06,3.16,7.06,7.06v108.17
		c0,3.9-3.16,7.06-7.06,7.06H783.3c-3.9,0-7.06-3.16-7.06-7.06V3.38z"/>
	<rect x="592.5" y="23.67" display="inline" fill="#FC7C0C" width="298.68" height="67.06"/>
	<path display="inline" fill="#FC7C0C" d="M592.5,99.5c15.18-8.65,33.46-8.78,44.86-8.78H592.5L592.5,99.5z"/>
	<rect x="307.5" y="24.55" display="inline" fill="#00263D" width="8.82" height="88.64"/>
	<rect x="583.67" y="24.55" display="inline" fill="#00263D" width="8.82" height="88.64"/>
	<line display="inline" fill="none" stroke="#231F20" stroke-miterlimit="10" x1="450" y1="-309" x2="450" y2="-183"/>
	<g display="inline">
		<text transform="matrix(1 0 0 1 -634.7402 -604.1787)"><tspan x="0" y="0" fill="#262729" font-family="'RSC-Caps'" font-size="88">ABCDEFGHIJKLM</tspan><tspan x="0" y="105.6" fill="#262729" font-family="'RSC-Caps'" font-size="88">NOPQRSTUVWXYZ</tspan><tspan x="0" y="211.2" fill="#262729" font-family="'RSC-Caps'" font-size="88">1234567890</tspan></text>
	</g>
	<g display="inline">
		<text transform="matrix(1 0 0 1 392.2891 73.7734)"><tspan x="0" y="0" fill="#FFFFFF" font-family="'MyriadPro-Regular'" font-size="28.2353">+</tspan><tspan x="16.83" y="0" fill="#FFFFFF" font-family="'RSC-Caps'" font-size="56.4706">4</tspan><tspan x="45.8" y="0" fill="#FFFFFF" font-family="'MyriadPro-Regular'" font-size="56.4706">:</tspan><tspan x="57.49" y="0" fill="#FFFFFF" font-family="'RSC-Caps'" font-size="56.4706">32</tspan></text>
	</g>
	<g display="inline">
		<text transform="matrix(1 0 0 1 79.1694 68.873)" fill="#FFFFFF" font-family="'RSC-Caps'" font-size="42.3529">TEAM NAME</text>
	</g>
	<g display="inline">
		<text transform="matrix(1 0 0 1 323.2397 77.959)" fill="#FFFFFF" font-family="'RSC-Caps'" font-size="56.4706">85</text>
	</g>
	<path display="inline" fill="#00263D" d="M338.16,127.38c-15.18-8.65-33.46-8.78-44.86-8.78h44.86L338.16,127.38z"/>
	<path display="inline" fill="#00263D" d="M561.84,127.38c15.18-8.65,33.46-8.78,44.86-8.78h-44.86L561.84,127.38z"/>
	<rect y="-12.51" display="inline" fill="#00263D" width="900" height="37.06"/>
	<g display="inline">
		<text transform="matrix(1 0 0 1 601.3193 69.1357)" fill="#FFFFFF" font-family="'RSC-Caps'" font-size="33.5294">LONGER TEAM NAME</text>
	</g>
	<g display="inline">
		<text transform="matrix(1 0 0 1 196.918 17.959)"><tspan x="0" y="0" fill="#CCCCCC" font-family="'RSC-Caps'" font-size="28.2353">RSC SEASON 16 </tspan><tspan x="189.46" y="0" fill="#CCCCCC" font-family="'MyriadPro-Regular'" font-size="28.2353">|</tspan><tspan x="196.2" y="0" fill="#CCCCCC" font-family="'RSC-Caps'" font-size="28.2353"> AMATEUR </tspan><tspan x="326.82" y="0" fill="#CCCCCC" font-family="'MyriadPro-Regular'" font-size="28.2353">|</tspan><tspan x="333.57" y="0" fill="#CCCCCC" font-family="'RSC-Caps'" font-size="28.2353"> MATCH DAY 1</tspan></text>
	</g>
	<g display="inline">
		<text transform="matrix(1 0 0 1 224.9189 360.7983)" fill="#CCCCCC" font-family="'RSC-Caps'" font-size="32">GAME 1 OF 4 </text>
	</g>
</g>
<g id="Layer_1_copy">
	<g>
		<path fill="#FC7C0C" d="M71.98,1357.79h-21.3c-1.24,0-2.25,1.01-2.25,2.25v114.9c0,0.8-0.43,1.54-1.12,1.95l-37.17,21.46
			c-17.52,10.12-17.52,12.06-17.51,39.07c0,0.86,0.43,1.54,1.13,1.95c0.34,0.2,0.73,0.3,1.12,0.3c0.39,0,0.78-0.11,1.12-0.3
			l77.1-44.51c0.69-0.4,1.12-1.15,1.12-1.95v-132.86C74.23,1358.79,73.22,1357.79,71.98,1357.79"/>
		<path fill="#0C88FC" d="M-94.76,1357.79h21.3c1.24,0,2.25,1.01,2.25,2.25v114.9c0,0.8,0.43,1.54,1.12,1.95l37.17,21.46
			c17.52,10.12,17.52,12.06,17.51,39.07c0,0.86-0.43,1.54-1.13,1.95c-0.34,0.2-0.73,0.3-1.12,0.3c-0.39,0-0.78-0.11-1.12-0.3
			l-77.1-44.51c-0.69-0.4-1.12-1.15-1.12-1.95v-132.86C-97,1358.79-95.99,1357.79-94.76,1357.79"/>
		<g>
			<g>
				<polygon fill="#001970" points="-59.07,1452.26 -57.3,1455.33 -55.53,1458.39 -23.8,1447.46 -25.08,1445.24 -27.6,1445.79 
					-30.89,1440.08 -34.19,1434.38 -32.45,1432.47 -33.73,1430.25 				"/>
				<polygon fill="#001970" points="32.75,1458.39 34.52,1455.33 36.29,1452.26 10.95,1430.25 9.67,1432.46 11.41,1434.38 
					8.12,1440.08 4.82,1445.79 2.3,1445.24 1.02,1447.46 				"/>
				<polygon fill="#001970" points="-7.85,1375.81 -11.39,1375.81 -14.93,1375.81 -21.32,1408.76 -18.76,1408.76 -17.98,1406.3 
					-11.39,1406.3 -4.8,1406.3 -4.01,1408.76 -1.46,1408.76 				"/>
				<path fill="#0C88FC" d="M0.19,1422.14c3.69,6.38,1.49,14.57-4.9,18.26c-6.38,3.69-14.58,1.49-18.26-4.89
					c-3.69-6.38-1.5-14.58,4.89-18.26C-11.69,1413.56-3.5,1415.75,0.19,1422.14z"/>
				<path fill="#FC7C0C" d="M3.35,1399.87c2.27,0.66,8.08,5.9,8.08,5.9c1.48,1.28,3,2.93,5.26,6.84c2.26,3.92,2.93,6.06,3.3,7.98
					c0,0,1.63,7.65,1.07,9.95l13.63,11.84c2.48-3.57,6.8-12.76,4.42-16.05c-3.56-4.91-7.4-3.3-15.66-17.61
					c-8.26-14.31-4.95-16.83-7.42-22.36c-1.66-3.72-11.78-4.56-16.11-4.2L3.35,1399.87z"/>
				<path fill="#FC7C0C" d="M-43.83,1430.53c-0.57-2.3,1.06-9.94,1.06-9.94c0.37-1.92,1.04-4.06,3.3-7.98
					c2.26-3.92,3.78-5.57,5.26-6.84c0,0,5.81-5.24,8.08-5.9l3.44-17.72c-4.33-0.36-14.45,0.49-16.11,4.2
					c-2.48,5.53,0.84,8.05-7.42,22.36c-8.26,14.31-12.1,12.7-15.66,17.61c-2.38,3.29,1.94,12.48,4.42,16.05L-43.83,1430.53z"/>
				<path fill="#FC7C0C" d="M6.31,1456.07c-1.7,1.64-9.15,4.05-9.15,4.05c-1.84,0.64-4.03,1.13-8.55,1.13
					c-4.53,0-6.71-0.49-8.56-1.13c0,0-7.44-2.41-9.14-4.05l-17.06,5.88c1.85,3.93,7.65,12.27,11.69,11.85
					c6.03-0.62,6.55-4.75,23.08-4.75c16.52,0,17.05,4.13,23.08,4.75c4.04,0.42,9.84-7.92,11.69-11.85L6.31,1456.07z"/>
			</g>
		</g>
		<g>
			<path fill="#001970" d="M-47.29,1347.4l-15.89-27.52l10.07-5.81c2.05-1.3,3.41-3.59,3.41-6.19v-17.47c0-4.04-3.28-7.32-7.32-7.32
				h-37.82c-1.1,0-2,0.89-2,2v62.32c0,1.1,0.9,2,2,2h10.65c1.1,0,2-0.9,2-2v-16.54l6.34-3.66l11.66,20.2c0.64,1.1,2.05,2,3.15,2
				h12.91C-47.03,1349.4-46.65,1348.5-47.29,1347.4z M-82.2,1297.73h17.85v5.91l-17.85,10.31V1297.73z"/>
			<path fill="#001970" d="M59.42,1297.73l0,5.94c0,1.1,0.9,1.48,2,0.85l10.65-6.15c1.1-0.64,2-2.05,2-3.16v-4.81
				c0-4.04-3.28-7.32-7.32-7.32h-32.5c-4.04,0-7.32,3.28-7.32,7.32v51.67c0,4.04,3.28,7.32,7.32,7.32h32.5
				c4.04,0,7.32-3.28,7.32-7.32v-4.81c0-1.11-0.9-2.52-2-3.16l-10.65-6.15c-1.1-0.64-2-0.26-2,0.85l0,5.94H41.57v-37.03H59.42z"/>
			<path fill="#001970" d="M-2.62,1297.73l0,5.94c0,1.1,0.9,1.48,2,0.85l10.65-6.15c1.1-0.64,2-2.05,2-3.16v-4.81
				c0-4.04-3.28-7.32-7.32-7.32h-32.5c-4.04,0-7.32,3.28-7.32,7.32v1.96v3.36v9.46v1.67c0,2.61,1.36,4.89,3.41,6.19l0,0v0
				l29.09,16.8v4.9h-17.85l0-5.94c0-1.1-0.9-1.48-2-0.85l-10.65,6.15c-1.1,0.64-2,2.05-2,3.16v4.81c0,4.04,3.28,7.32,7.32,7.32h32.5
				c4.04,0,7.32-3.28,7.32-7.32v-1.96v-3.36v-9.46v-1.67c0-2.61-1.36-4.89-3.41-6.19l0,0l0,0l-29.09-16.8v-4.9H-2.62z"/>
		</g>
	</g>
	<path display="none" fill="#0C88FC" d="M1153.57-360.28c-30.47-71.83-73.9-136.21-129.09-191.36
		c-55.15-55.1-119.5-98.45-191.28-128.85c-74.9-31.72-154.13-47.81-235.47-47.81h-60.95c-29.23,0-58.19,2.09-86.77,6.22
		c-28.58-4.13-57.54-6.22-86.77-6.22h-60.95c-81.35,0-160.57,16.09-235.47,47.81c-71.78,30.4-136.14,73.76-191.28,128.85
		c-55.19,55.15-98.62,119.53-129.09,191.36c-31.8,74.98-47.93,154.3-47.93,235.75V98.53c0,105.67,27.89,209.92,80.65,301.48
		c52.87,91.74,129.27,168.24,220.93,221.23l129.75,74.91l2.31,1.33c91.08,52.05,194.67,79.56,299.57,79.56
		c6.1,0,12.19-0.1,18.28-0.29c6.09,0.19,12.18,0.29,18.28,0.29c104.9,0,208.49-27.51,299.57-79.56l1.16-0.66l130.9-75.57
		c91.66-52.99,168.06-129.5,220.93-221.23c52.76-91.56,80.66-195.81,80.66-301.48v-223.06
		C1201.5-205.98,1185.37-285.3,1153.57-360.28z"/>
	<path fill="#00263D" d="M450,158.95c0,0-16.12,0.48-16.23,0.49c-0.42-0.03-1.14-0.22-1.5-0.4l-114.3-65.99
		c-0.39-0.23-0.98-0.82-1.21-1.23c-0.21-0.37-0.44-1.19-0.44-1.65v-196.82c0-0.33,0.01-0.54,0.02-0.67
		c0.04-0.12,0.12-0.33,0.25-0.64c0.13-0.31,0.23-0.49,0.27-0.57c0.06-0.07,0.2-0.23,0.45-0.48c0.23-0.23,0.38-0.36,0.45-0.42
		c0.08-0.04,0.27-0.14,0.6-0.28c0.3-0.12,0.5-0.2,0.62-0.24c0.12-0.01,0.34-0.02,0.67-0.02h53.78c0.34,0,0.62,0.02,0.82,0.04
		l75.74,10.95l75.74-10.95c0.08-0.01,0.32-0.04,0.83-0.04h53.78c0.33,0,0.54,0.01,0.67,0.02c0.12,0.04,0.32,0.12,0.63,0.25
		c0.32,0.13,0.5,0.23,0.58,0.27c0.08,0.06,0.24,0.21,0.48,0.45c0.23,0.23,0.36,0.38,0.42,0.46c0.04,0.08,0.14,0.27,0.29,0.61
		c0.12,0.29,0.2,0.49,0.23,0.61c0.01,0.12,0.02,0.34,0.02,0.67V90.17c0,0.45-0.22,1.28-0.45,1.68c-0.22,0.38-0.81,0.98-1.21,1.21
		l0.26-0.15l-114.57,66.14c-0.37,0.18-1.07,0.37-1.48,0.4C466.12,159.43,450,158.95,450,158.95z"/>
	<rect x="76.7" y="77.12" fill="#00263D" width="746.61" height="27.88"/>
	<linearGradient id="SVGID_1_" gradientUnits="userSpaceOnUse" x1="-106.4673" y1="52.5" x2="8.5327" y2="52.5">
		<stop  offset="0" style="stop-color:#206CFF"/>
		<stop  offset="0.7137" style="stop-color:#00263D"/>
	</linearGradient>
	<path display="none" fill="url(#SVGID_1_)" d="M8.53,0h-115v97.94c0,3.9,3.16,7.06,7.06,7.06H8.53V0z"/>
	<path fill="#00263D" d="M116.7,0H0v97.95c0,3.9,3.16,7.05,7.06,7.05H116.7V0z"/>
	<rect x="433.87" y="141.54" fill="#00263D" width="32.26" height="26.73"/>
	<path fill="#00263D" d="M433.87,168.26c-2.13,0-4.23-0.56-6.07-1.63l-114.22-65.94c-3.75-2.17-6.08-6.2-6.08-10.53v-196.82
		c0-6.7,5.45-12.15,12.15-12.15h53.78c6.7,0,12.15,5.45,12.15,12.15V73.22l30.09,17.37c13.05,7.53,21.94,13.26,26.41,23.73
		c3.95,9.26,3.95,20.81,3.94,41.79c0,4.38-2.27,8.31-6.06,10.51C438.07,167.71,435.98,168.26,433.87,168.26z"/>
	<path fill="#206CFF" d="M411.26,98.24l-34.5-19.92v-184.97c0-1.84-1.5-3.33-3.33-3.33h-22.22h-9.33h-22.22
		c-1.83,0-3.33,1.49-3.33,3.33V90.17c0,1.19,0.64,2.29,1.66,2.88l114.21,65.94c0.5,0.29,1.08,0.45,1.66,0.45s1.16-0.16,1.66-0.45
		c1.03-0.6,1.67-1.61,1.67-2.88C437.22,116.11,437.22,113.22,411.26,98.24z"/>
	<path fill="#00263D" d="M466.13,168.26c-2.11,0-4.2-0.56-6.04-1.61c-3.85-2.23-6.11-6.16-6.11-10.54
		c-0.01-20.97-0.01-32.52,3.94-41.78c4.47-10.47,13.36-16.2,26.41-23.73l30.09-17.37v-179.88c0-6.7,5.45-12.15,12.15-12.15h53.78
		c6.7,0,12.15,5.45,12.15,12.15V90.17c0,4.33-2.33,8.36-6.07,10.53l-114.22,65.94C470.35,167.7,468.25,168.26,466.13,168.26z"/>
	<path fill="#F88521" d="M488.74,98.24l34.5-19.92v-184.97c0-1.84,1.5-3.33,3.33-3.33h22.22h9.33h22.22c1.83,0,3.33,1.49,3.33,3.33
		V90.17c0,1.19-0.64,2.29-1.66,2.88l-114.21,65.94c-0.5,0.29-1.08,0.45-1.66,0.45c-0.58,0-1.16-0.16-1.66-0.45
		c-1.03-0.6-1.67-1.61-1.67-2.88C462.78,116.11,462.78,113.22,488.74,98.24z"/>
	<g>
		<path fill="#FC7C0C" d="M296.26,1358.64h-21.3c-1.24,0-2.25,1.01-2.25,2.25v114.9c0,0.8-0.43,1.54-1.12,1.95l-37.17,21.46
			c-17.52,10.12-17.52,12.06-17.51,39.07c0,0.86,0.43,1.54,1.13,1.95c0.34,0.2,0.73,0.3,1.12,0.3c0.39,0,0.78-0.11,1.13-0.3
			l77.1-44.51c0.69-0.4,1.12-1.15,1.12-1.95v-132.86C298.5,1359.65,297.5,1358.64,296.26,1358.64"/>
		<path fill="#0C88FC" d="M129.52,1358.64h21.3c1.24,0,2.25,1.01,2.25,2.25v114.9c0,0.8,0.43,1.54,1.13,1.95l37.16,21.46
			c17.52,10.12,17.52,12.06,17.51,39.07c0,0.86-0.43,1.54-1.13,1.95c-0.34,0.2-0.73,0.3-1.12,0.3s-0.78-0.11-1.12-0.3l-77.1-44.51
			c-0.69-0.4-1.12-1.15-1.12-1.95v-132.86C127.28,1359.65,128.29,1358.64,129.52,1358.64"/>
		<g>
			<g>
				<polygon fill="#0C88FC" points="165.21,1453.12 166.98,1456.18 168.75,1459.25 200.48,1448.31 199.2,1446.1 196.68,1446.64 
					193.39,1440.94 190.09,1435.23 191.83,1433.32 190.55,1431.11 				"/>
				<polygon fill="#0C88FC" points="257.03,1459.25 258.8,1456.18 260.57,1453.12 235.23,1431.11 233.95,1433.32 235.69,1435.23 
					232.4,1440.94 229.1,1446.64 226.58,1446.1 225.3,1448.31 				"/>
				<polygon fill="#0C88FC" points="216.43,1376.67 212.89,1376.67 209.35,1376.67 202.96,1409.61 205.51,1409.62 206.3,1407.16 
					212.89,1407.16 219.48,1407.15 220.27,1409.61 222.82,1409.62 				"/>
				<path fill="#00263D" d="M224.47,1423c3.69,6.38,1.49,14.57-4.9,18.26c-6.38,3.69-14.58,1.49-18.26-4.89
					c-3.69-6.38-1.5-14.58,4.89-18.26C212.59,1414.41,220.78,1416.61,224.47,1423z"/>
				<path fill="#FC7C0C" d="M227.63,1400.73c2.27,0.66,8.08,5.9,8.08,5.9c1.48,1.28,3,2.93,5.26,6.84c2.26,3.92,2.93,6.06,3.29,7.98
					c0,0,1.63,7.65,1.07,9.95l13.63,11.84c2.48-3.57,6.8-12.76,4.42-16.05c-3.56-4.91-7.39-3.3-15.66-17.61
					c-8.26-14.31-4.95-16.83-7.42-22.36c-1.66-3.72-11.78-4.56-16.11-4.2L227.63,1400.73z"/>
				<path fill="#FC7C0C" d="M180.45,1431.39c-0.57-2.3,1.06-9.94,1.06-9.94c0.37-1.92,1.04-4.06,3.3-7.98
					c2.26-3.92,3.78-5.57,5.26-6.84c0,0,5.81-5.24,8.08-5.9l3.44-17.72c-4.33-0.36-14.45,0.49-16.11,4.2
					c-2.48,5.53,0.84,8.05-7.42,22.36c-8.26,14.31-12.1,12.7-15.66,17.61c-2.38,3.29,1.95,12.48,4.43,16.05L180.45,1431.39z"/>
				<path fill="#FC7C0C" d="M230.59,1456.92c-1.7,1.64-9.15,4.05-9.15,4.05c-1.84,0.64-4.03,1.13-8.55,1.13
					c-4.53,0-6.71-0.49-8.56-1.13c0,0-7.44-2.41-9.14-4.05l-17.06,5.88c1.85,3.93,7.64,12.27,11.69,11.85
					c6.03-0.62,6.55-4.75,23.07-4.75c16.53,0,17.05,4.13,23.08,4.75c4.04,0.42,9.84-7.92,11.69-11.85L230.59,1456.92z"/>
			</g>
		</g>
		<g>
			<path fill="#00263D" d="M176.99,1348.26l-15.89-27.52l10.07-5.81c2.05-1.3,3.41-3.59,3.41-6.19v-17.47
				c0-4.04-3.28-7.32-7.32-7.32h-37.82c-1.1,0-2,0.89-2,2v62.32c0,1.1,0.9,2,2,2h10.65c1.11,0,2-0.9,2-2v-16.54l6.34-3.66
				l11.66,20.2c0.64,1.1,2.05,2,3.15,2h12.91C177.25,1350.26,177.63,1349.36,176.99,1348.26z M142.08,1298.58h17.85v5.91
				l-17.85,10.31V1298.58z"/>
			<path fill="#00263D" d="M283.7,1298.58v5.94c0,1.1,0.9,1.48,2,0.85l10.65-6.15c1.11-0.64,2-2.05,2-3.16v-4.81
				c0-4.04-3.28-7.32-7.32-7.32h-32.5c-4.04,0-7.32,3.28-7.32,7.32v51.67c0,4.04,3.28,7.32,7.32,7.32h32.5
				c4.04,0,7.32-3.28,7.32-7.32v-4.81c0-1.11-0.89-2.52-2-3.16l-10.65-6.15c-1.1-0.64-2-0.26-2,0.85v5.94h-17.85v-37.03H283.7z"/>
			<path fill="#00263D" d="M221.66,1298.58v5.94c0,1.1,0.9,1.48,2,0.85l10.65-6.15c1.11-0.64,2-2.05,2-3.16v-4.81
				c0-4.04-3.28-7.32-7.32-7.32h-32.5c-4.04,0-7.32,3.28-7.32,7.32v1.96v3.36v9.46v1.67c0,2.61,1.36,4.89,3.41,6.19l0,0v0
				l29.09,16.8v4.9h-17.85l0-5.94c0-1.1-0.89-1.48-2-0.85l-10.65,6.15c-1.1,0.64-2,2.05-2,3.16v4.81c0,4.04,3.28,7.32,7.32,7.32
				h32.5c4.04,0,7.32-3.28,7.32-7.32v-1.96v-3.36v-9.46v-1.67c0-2.61-1.36-4.89-3.41-6.19l0,0l0,0l-29.09-16.8v-4.9H221.66z"/>
		</g>
	</g>
	<rect x="8.82" y="32" fill="#206CFF" width="298.68" height="46"/>
	<rect x="377" y="42" display="none" fill="#1E3C52" width="146" height="75"/>
	<rect x="727.08" y="-303.14" fill="#1E3C52" width="146" height="75"/>
	<rect x="377" y="42" display="none" fill="#AB2C29" width="146" height="75"/>
	
		<image display="none" overflow="visible" width="1920" height="1080" xlink:href="75FE339E.jpg"  transform="matrix(1 0 0 1 -510 0)">
	</image>
	<path fill="#FFFFFF" stroke="#231F20" stroke-miterlimit="10" d="M417.96,163.27"/>
	<line display="none" fill="none" stroke="#D7DF23" stroke-miterlimit="10" x1="222.21" y1="88.66" x2="429.83" y2="208.53"/>
	<path display="none" fill="none" stroke="#D7DF23" stroke-miterlimit="10" d="M201.67,117c69.62,0,69.91,0.16,90.21,11.88"/>
	<linearGradient id="SVGID_2_" gradientUnits="userSpaceOnUse" x1="891.4668" y1="52.5" x2="1006.4668" y2="52.5">
		<stop  offset="0.2863" style="stop-color:#00263D"/>
		<stop  offset="1" style="stop-color:#F88521"/>
	</linearGradient>
	<path display="none" fill="url(#SVGID_2_)" d="M891.47,0h115v97.94c0,3.9-3.16,7.06-7.06,7.06H891.47V0z"/>
	<path fill="#00263D" d="M776.24-10.12c0-3.9,3.16-7.06,7.06-7.06h109.64c3.9,0,7.06,3.16,7.06,7.06V98.05
		c0,3.9-3.16,7.06-7.06,7.06H783.3c-3.9,0-7.06-3.16-7.06-7.06V-10.12z"/>
	<path fill="#206CFF" d="M307.51,86.78C292.33,78.13,274.04,78,262.65,78h44.86L307.51,86.78z"/>
	<rect x="592.5" y="32" fill="#F88521" width="298.68" height="46"/>
	<path fill="#0C88FC" d="M592.49,86.78c15.18-8.65,33.46-8.78,44.86-8.78H592.5L592.49,86.78z"/>
	<path fill="#F88521" d="M592.49,86.73c15.18-8.65,33.46-8.78,44.86-8.78H592.5L592.49,86.73z"/>
	<line fill="none" stroke="#231F20" stroke-miterlimit="10" x1="450" y1="-309" x2="450" y2="-183"/>
	<g>
		<text transform="matrix(1 0 0 1 -634.7402 -604.1787)"><tspan x="0" y="0" fill="#262729" font-family="'RSC-Bold'" font-size="88">ABCDEFGHIJKLM</tspan><tspan x="0" y="105.6" fill="#262729" font-family="'RSC-Bold'" font-size="88">NOPQRSTUVWXYZ</tspan><tspan x="0" y="211.2" fill="#262729" font-family="'RSC-Bold'" font-size="88">1234567890</tspan></text>
	</g>
	<path display="none" fill="#AB2B28" d="M513.24,70.31c0,4.42-3.58,8-8,8H394.76c-4.42,0-8-3.58-8-8V40c0-4.42,3.58-8,8-8h110.47
		c4.42,0,8,3.58,8,8V70.31z"/>
	<polygon fill="#00263D" points="592.49,93.61 301.67,93.61 346.58,115.61 550.67,115.61 	"/>
	<g display="none">
		<text transform="matrix(1 0 0 1 390.0967 65.5933)" display="inline"><tspan x="0" y="0" fill="#FFFFFF" font-family="'RSC-Bold'" font-size="28.2353">+</tspan><tspan x="19.74" y="6" fill="#FFFFFF" font-family="'RSC-Bold'" font-size="56">4:32</tspan></text>
	</g>
	<g display="none">
		<text transform="matrix(1 0 0 1 91.0918 66.873)" display="inline" fill="#FFFFFF" font-family="'RSC-Bold'" font-size="44">TEAM NAME</text>
	</g>
	<g display="none">
		<text transform="matrix(1 0 0 1 317.8535 78.3145)" display="inline" fill="#FFFFFF" font-family="'RSC-Bold'" font-size="68">19</text>
	</g>
	<g display="none">
		<text transform="matrix(1 0 0 1 524.6875 77.959)" display="inline" fill="#FFFFFF" font-family="'RSC-Bold'" font-size="68">19</text>
	</g>
	<g display="none">
		<text transform="matrix(1 0 0 1 412.1157 142.6807)" display="inline" fill="#FFFFFF" font-family="'RSC-Bold'" font-size="36">2</text>
	</g>
	<g display="none">
		<text transform="matrix(1 0 0 1 468.8398 142.6807)" display="inline" fill="#FFFFFF" font-family="'RSC-Bold'" font-size="36">9</text>
	</g>
	<path fill="#00263D" d="M368.45,132.26C344.84,118.63,297.63,105,269.63,105h68.53L368.45,132.26z"/>
	<path fill="#00263D" d="M531.55,132.26c23.61-13.63,70.82-27.26,98.82-27.26h-68.53L531.55,132.26z"/>
	<rect fill="#00263D" width="900" height="32"/>
	<g display="none">
		<text transform="matrix(1 0 0 1 601.3193 63.313)" display="inline" fill="#FFFFFF" font-family="'RSC-Bold'" font-size="34">LONGER TEAM NAME</text>
	</g>
	<g display="none">
		<text transform="matrix(1 0 0 1 253.335 23.0439)" display="inline" fill="#CCCCCC" font-family="'RSC-Bold'" font-size="24">RSC SEASON 16 | AMATEUR | MATCH DAY 1</text>
	</g>
	<text transform="matrix(1 0 0 1 420.1777 99.7173)"><tspan x="0" y="0" fill="#00263D" font-family="'RSC-Caps'" font-size="16">GAME </tspan><tspan x="44.26" y="4" fill="#00263D" font-family="'RSC-Caps'" font-size="30">4</tspan></text>
	<g display="none">
		<text transform="matrix(1 0 0 1 369.2114 111.4409)" display="inline"><tspan x="0" y="0" fill="#CCCCCC" font-family="'RSC-Caps'" font-size="20">GAME 1 </tspan><tspan x="69.82" y="0" fill="#CCCCCC" font-family="'MyriadPro-Regular'" font-size="20">|</tspan><tspan x="74.6" y="0" fill="#CCCCCC" font-family="'RSC-Caps'" font-size="20"> BEST OF 7</tspan></text>
	</g>
	<g display="none">
		<text transform="matrix(1 0 0 1 113.9175 98.7124)" display="inline" fill="#FFFFFF" font-family="'RSC-Bold'" font-size="24">FRANCHISE NAME</text>
	</g>
	<g display="none">
		<text transform="matrix(1 0 0 1 619.0684 98.7124)" display="inline" fill="#FFFFFF" font-family="'RSC-Bold'" font-size="24">FRANCHISE NAME</text>
	</g>
	<g id="with_text">
		<path d="M-21.49,50.4c-0.1-0.15-0.21-0.3-0.32-0.45V14.54c0-2.5-2.03-4.54-4.54-4.54h-55.25c-2.5,0-4.54,2.03-4.54,4.54v35.41
			c-0.11,0.15-0.22,0.3-0.32,0.45c-0.97,1.44-3.02,5.24-1.22,9.42c0.38,0.87,0.89,1.68,1.54,2.42v1.34c0,2.51,0.64,5.26,1.8,8
			c-0.46,1.92-0.25,3.87,0.62,5.69c1.05,2.19,2.93,3.62,5.28,4.01c0.22,0.04,0.44,0.06,0.67,0.08c0.03,0.03,0.05,0.05,0.08,0.08
			c5.47,5.62,12.68,9.22,20.53,10.3c0.25,0.65,0.48,1.24,0.56,1.46c0.42,1.08,1.47,1.8,2.63,1.8c1.16,0,2.21-0.72,2.63-1.8
			c0.11-0.3,0.33-0.86,0.56-1.46c7.86-1.08,15.06-4.68,20.53-10.3c0.03-0.03,0.05-0.05,0.08-0.08c0.23-0.02,0.45-0.05,0.67-0.08
			c2.35-0.4,4.22-1.82,5.27-4.01c0.87-1.82,1.07-3.76,0.62-5.69c1.16-2.74,1.8-5.49,1.8-8.01v-1.34c0.65-0.74,1.16-1.54,1.54-2.42
			C-18.46,55.63-20.52,51.84-21.49,50.4z"/>
		<g>
			<path fill="#FFD100" d="M-25.32,64.96c-0.08,0.77-0.23,1.55-0.43,2.35c0.23,0.29,0.45,0.59,0.65,0.89
				c0.1,0.14,0.18,0.29,0.27,0.43c0.48-1.53,0.77-3.04,0.83-4.47C-24.42,64.44-24.86,64.71-25.32,64.96z"/>
			<path fill="#FFD100" d="M-83.1,68.63c0.09-0.14,0.18-0.29,0.27-0.43c0.2-0.3,0.42-0.6,0.65-0.89c-0.21-0.8-0.35-1.59-0.43-2.35
				c-0.47-0.25-0.9-0.52-1.31-0.8C-83.86,65.59-83.58,67.09-83.1,68.63z"/>
			<path fill="#FFD100" d="M-57.27,89.17c-0.11-0.35-0.16-0.67-0.16-0.96c-5.97-0.96-11.49-3.54-15.97-7.46
				c-0.49,0.16-0.97,0.29-1.44,0.39c4.88,4.49,11.03,7.4,17.69,8.38C-57.21,89.37-57.25,89.25-57.27,89.17z"/>
			<path fill="#FFD100" d="M-50.66,89.17c-0.02,0.07-0.07,0.19-0.12,0.35c6.67-0.98,12.81-3.88,17.69-8.38
				c-0.47-0.1-0.95-0.23-1.44-0.39c-4.48,3.92-10,6.5-15.97,7.46C-50.5,88.5-50.55,88.82-50.66,89.17z"/>
			<path fill="#FFD100" d="M-82.69,46.67V14.54c0-0.6,0.49-1.1,1.09-1.1h55.25c0.6,0,1.09,0.49,1.09,1.1v32.13
				c0.43,0.27,0.85,0.58,1.25,0.92V14.54c0-1.29-1.05-2.35-2.35-2.35h-55.25c-1.29,0-2.35,1.05-2.35,2.35v33.05
				C-83.54,47.25-83.12,46.94-82.69,46.67z"/>
		</g>
		<path fill="#FFFFFF" d="M-50.03,37.29c-1.24-0.45-2.56-0.69-3.94-0.69c-1.37,0-2.7,0.24-3.94,0.69c-0.66-3.07-2.72-5.58-5.25-6.27
			c-1.75-0.48-5.27-0.49-9.25,4.76c-0.03,0.04-0.05,0.1,0.01,0.18c0.05,0.08,0.96,0.73,1.05,0.79c0.08,0.06,0.16,0.01,0.19-0.02
			c2.54-3.35,5.23-4.84,7.59-4.2c2.07,0.57,3.75,2.76,4.2,5.42c-1.19,0.64-2.28,1.5-3.22,2.57c-2.11,2.4-3.33,5.67-3.58,9.52
			c-3.29-1.97-7.44-3.46-11.34-2.94c-2.98,0.4-5.38,1.92-7.12,4.51c-0.77,1.14-2.4,4.14-1.02,7.33c1.23,2.86,4.45,4.88,9.58,6.03
			c-2.05,1.21-3.79,2.73-4.93,4.44c-1.54,2.31-1.79,4.7-0.73,6.9c0.75,1.55,2.01,2.52,3.66,2.8c0.34,0.06,0.69,0.08,1.05,0.08
			c3.08,0,7-2.03,10.86-5.64c0.94,3.66,2.53,6.12,3.91,7.68c2.35,2.65,5.44,4.23,8.28,4.23c2.84,0,5.93-1.58,8.28-4.23
			c1.39-1.56,2.97-4.02,3.91-7.68c3.86,3.61,7.78,5.64,10.86,5.64c0.36,0,0.71-0.03,1.05-0.08c1.65-0.28,2.92-1.25,3.66-2.8
			c1.06-2.21,0.81-4.59-0.73-6.9c-1.14-1.71-2.88-3.23-4.93-4.44c5.13-1.15,8.35-3.17,9.58-6.03c1.38-3.19-0.26-6.19-1.02-7.33
			c-1.74-2.59-4.14-4.11-7.12-4.51c-3.91-0.52-8.05,0.97-11.34,2.94c-0.25-3.85-1.47-7.12-3.58-9.52c-0.94-1.07-2.02-1.93-3.22-2.57
			c0.45-2.66,2.13-4.85,4.2-5.42c2.35-0.65,5.05,0.84,7.59,4.2c0.03,0.04,0.1,0.08,0.19,0.02c0.09-0.06,1-0.71,1.05-0.79
			c0.05-0.08,0.03-0.14,0.01-0.18c-3.98-5.25-7.5-5.24-9.25-4.76C-47.32,31.72-49.38,34.23-50.03,37.29z M-84.22,58.33
			c-1.07-2.48,0.26-4.91,0.89-5.83c1.48-2.21,3.51-3.5,6.03-3.83c4.63-0.62,10.15,2.1,13.57,5.06c1.8,1.56,1.09,2.96-0.56,5.71
			c-0.49,0.81-1.02,1.71-1.49,2.69c-2.66-0.04-5.48,0.59-8.04,1.7C-79.47,62.88-83.07,60.98-84.22,58.33z M-77.81,77.57
			c-1.14-0.19-1.99-0.84-2.51-1.93c-0.82-1.71-0.61-3.51,0.62-5.36c2.43-3.64,8.2-6.45,13.29-6.59c-0.38,1.11-0.61,2.31-0.58,3.62
			c0.04,1.63,0.2,3.11,0.44,4.45C-70.62,75.77-75.01,78.04-77.81,77.57z M-46.86,80.2c-2.42,2.73-5.26,3.7-7.11,3.7
			c-1.85,0-4.69-0.97-7.11-3.7c-1.89-2.13-4.18-6.11-4.35-12.93c-0.07-2.76,1.29-5.03,2.49-7.04c1.53-2.56,3.12-5.21,0.24-7.7
			c-0.58-0.5-1.23-1.01-1.94-1.5c0.2-8.83,5.63-12.86,10.68-12.86c5.05,0,10.47,4.03,10.68,12.86c-0.71,0.5-1.36,1-1.94,1.5
			c-2.88,2.49-1.29,5.14,0.24,7.7c1.2,2,2.56,4.27,2.49,7.04C-42.68,74.09-44.97,78.07-46.86,80.2z M-28.23,70.28
			c1.23,1.85,1.44,3.65,0.62,5.36c-0.52,1.09-1.37,1.74-2.51,1.93c-2.81,0.47-7.2-1.8-11.26-5.81c0.24-1.34,0.4-2.82,0.44-4.45
			c0.03-1.31-0.2-2.52-0.58-3.62C-36.43,63.83-30.66,66.64-28.23,70.28z M-23.72,58.33c-1.15,2.66-4.75,4.56-10.41,5.49
			c-2.56-1.11-5.38-1.75-8.04-1.7c-0.46-0.98-1-1.87-1.49-2.69c-1.65-2.76-2.36-4.15-0.56-5.71c3.42-2.96,8.95-5.68,13.57-5.06
			c2.52,0.34,4.55,1.63,6.03,3.83C-23.98,53.42-22.64,55.84-23.72,58.33z"/>
		<path fill="#FFD100" d="M-47.99,56.22c-0.12-0.24-0.43-0.82-0.48-0.89c-0.06-0.1-0.15-0.06-0.19-0.04
			c-1.65,0.86-3.06,1.17-5.31,1.17c-2.25,0-3.66-0.31-5.31-1.17c-0.04-0.02-0.13-0.06-0.19,0.04c-0.05,0.08-0.36,0.66-0.48,0.89
			c-0.05,0.1,0.02,0.14,0.05,0.16c1.84,0.97,3.46,1.33,5.93,1.33c2.46,0,4.08-0.36,5.93-1.33C-48.01,56.36-47.94,56.31-47.99,56.22z
			"/>
		<path fill="#FFD100" d="M-44.85,63.58c-0.05-0.1-0.1-0.2-0.15-0.29c-0.71-1.45-1.6-3.25-4.21-2.59c-0.22,0.05-0.42,0.11-0.61,0.16
			c-1.45,0.38-2.18,0.56-4.15,0.56c-1.96,0-2.69-0.19-4.15-0.56c-0.19-0.05-0.39-0.1-0.61-0.16c-2.61-0.66-3.5,1.14-4.21,2.59
			c-0.05,0.1-0.1,0.2-0.15,0.29c-0.44,0.89-0.52,1.76-0.23,2.5c0.27,0.69,0.84,1.2,1.64,1.49l0.09,0.03c1.1,0.4,2.94,1.07,7.61,1.07
			c4.67,0,6.51-0.67,7.61-1.07l0.09-0.03c0.8-0.29,1.37-0.81,1.64-1.49C-44.33,65.33-44.41,64.47-44.85,63.58z M-45.78,65.61
			c-0.17,0.44-0.59,0.67-0.91,0.78l-0.09,0.03c-1.02,0.37-2.73,1-7.18,1c-4.45,0-6.16-0.63-7.18-1l-0.09-0.03
			c-0.32-0.12-0.74-0.35-0.91-0.78c-0.16-0.4-0.1-0.91,0.19-1.48c0.05-0.1,0.1-0.2,0.15-0.3c0.78-1.58,1.22-2.32,2.79-1.93
			c0.22,0.05,0.42,0.11,0.6,0.16c1.46,0.38,2.34,0.6,4.46,0.6c2.12,0,3-0.23,4.46-0.6c0.19-0.05,0.39-0.1,0.6-0.16
			c1.56-0.4,2.01,0.35,2.79,1.93c0.05,0.1,0.1,0.2,0.15,0.3C-45.69,64.7-45.62,65.21-45.78,65.61z"/>
		<path fill="#FFD100" d="M-45.71,72.58c-0.47-0.63-1.25-0.87-2.13-0.65c-0.21,0.05-0.44,0.12-0.71,0.2
			c-1.09,0.32-2.74,0.81-5.43,0.81c-2.68,0-4.33-0.49-5.42-0.81c-0.27-0.08-0.5-0.15-0.71-0.2c-0.88-0.21-1.66,0.02-2.13,0.65
			c-0.55,0.73-0.52,1.77-0.19,2.36c0.97,1.68,3.73,5.58,8.45,5.58c4.72,0,7.48-3.9,8.45-5.58C-45.18,74.35-45.16,73.31-45.71,72.58z
			 M-46.6,74.31c-0.86,1.49-3.3,4.95-7.36,4.95c-4.06,0-6.5-3.46-7.36-4.95c-0.11-0.19-0.12-0.68,0.11-0.98
			c0.06-0.08,0.25-0.33,0.83-0.19c0.18,0.04,0.4,0.11,0.65,0.18c1.09,0.32,2.91,0.86,5.78,0.86c2.86,0,4.69-0.54,5.78-0.86
			c0.25-0.07,0.47-0.14,0.65-0.18c0.59-0.14,0.77,0.1,0.83,0.19C-46.48,73.63-46.5,74.12-46.6,74.31z"/>
		<path fill="#D9272E" d="M-53.97,92.81c-0.26,0-0.49-0.16-0.58-0.4c-0.13-0.33-1.24-3.22-1.38-3.66c-0.2-0.62-0.05-1.01,0.11-1.23
			c0.15-0.21,0.45-0.45,1.02-0.45h1.66c0.57,0,0.87,0.25,1.02,0.45c0.16,0.22,0.31,0.61,0.11,1.23c-0.14,0.44-1.25,3.33-1.38,3.66
			C-53.48,92.65-53.71,92.81-53.97,92.81z M-54.75,88.32c0,0.02,0.01,0.03,0.01,0.05c0.06,0.2,0.4,1.1,0.77,2.07
			c0.37-0.96,0.71-1.87,0.77-2.07c0-0.02,0.01-0.03,0.01-0.05H-54.75z"/>
		<g>
			<path fill="#D9272E" d="M-77.18,27.33h-1.52c-0.25,0-0.37-0.12-0.37-0.37V16.24c0-0.25,0.12-0.37,0.37-0.37h4.24
				c0.93,0,1.65,0.26,2.17,0.77c0.52,0.51,0.78,1.23,0.78,2.16v1.39c0,1.34-0.53,2.23-1.58,2.67v0.07l1.9,3.98
				c0.11,0.29,0.01,0.43-0.3,0.43h-1.44c-0.21,0-0.37-0.02-0.46-0.07c-0.1-0.05-0.17-0.15-0.23-0.3l-1.78-3.85h-1.19
				c-0.14,0-0.21,0.07-0.21,0.2v3.66C-76.81,27.2-76.93,27.33-77.18,27.33z M-76.61,21.28h1.75c0.38,0,0.66-0.08,0.84-0.24
				c0.18-0.16,0.27-0.42,0.27-0.78v-1.39c0-0.37-0.09-0.64-0.27-0.8c-0.18-0.17-0.46-0.25-0.84-0.25h-1.75c-0.13,0-0.2,0.07-0.2,0.2
				v3.07C-76.81,21.22-76.74,21.28-76.61,21.28z"/>
			<path fill="#D9272E" d="M-65.88,27.33h-3.86c-0.3,0-0.45-0.16-0.45-0.47v-1.02c0-0.16,0.03-0.28,0.09-0.35
				c0.06-0.07,0.18-0.1,0.36-0.1h3.75c0.73,0,1.1-0.28,1.1-0.73V24.3c0-0.64-0.31-0.82-0.92-1.15l-2.23-1.24
				c-0.76-0.39-1.33-0.81-1.69-1.26c-0.36-0.45-0.54-1.03-0.54-1.73c0-1.05,0.28-1.82,0.83-2.32c0.55-0.49,1.42-0.74,2.61-0.74h3.75
				c0.3,0,0.45,0.16,0.45,0.47v1.04c0,0.17-0.03,0.28-0.09,0.35c-0.06,0.07-0.18,0.1-0.36,0.1h-3.54c-0.73,0-1.1,0.32-1.1,0.7v0.4
				c0,0.33,0.32,0.67,0.97,1.01l2.27,1.35c0.78,0.42,1.33,0.85,1.64,1.29c0.31,0.44,0.47,1.02,0.47,1.74
				C-62.36,26.32-63.53,27.33-65.88,27.33z"/>
			<path fill="#FFD100" d="M-61.17,26.95V16.24c0-0.25,0.13-0.37,0.37-0.37h4.28c0.94,0,1.66,0.25,2.18,0.75
				c0.51,0.5,0.77,1.21,0.77,2.14v0.73c0,1.01-0.47,1.66-1.41,1.96c0.48,0.07,0.86,0.26,1.14,0.58c0.29,0.32,0.43,0.76,0.43,1.35
				v1.07c0,0.93-0.26,1.64-0.77,2.14c-0.51,0.5-1.23,0.75-2.16,0.75h-4.46C-61.04,27.33-61.17,27.2-61.17,26.95z M-58.71,20.52h1.82
				c0.38,0,0.66-0.08,0.84-0.24c0.18-0.16,0.27-0.42,0.27-0.79v-0.7c0-0.37-0.09-0.63-0.26-0.79c-0.17-0.16-0.45-0.24-0.83-0.24
				h-1.84c-0.13,0-0.2,0.06-0.2,0.2v2.37C-58.9,20.45-58.84,20.52-58.71,20.52z M-58.71,25.44h2c0.39,0,0.67-0.08,0.85-0.24
				c0.17-0.16,0.26-0.42,0.26-0.79v-1.03c0-0.37-0.09-0.63-0.27-0.78c-0.18-0.15-0.47-0.23-0.87-0.23h-1.96
				c-0.13,0-0.2,0.07-0.2,0.2v2.69C-58.9,25.37-58.84,25.44-58.71,25.44z"/>
			<path fill="#FFD100" d="M-45.35,27.33h-3.94c-0.94,0-1.67-0.25-2.18-0.75c-0.51-0.5-0.77-1.22-0.77-2.16v-3.28
				c0-0.94,0.26-1.66,0.77-2.16c0.51-0.5,1.24-0.75,2.18-0.75h1.41c0.94,0,1.66,0.25,2.17,0.75c0.51,0.5,0.77,1.22,0.77,2.16v2.26
				c0,0.25-0.13,0.37-0.38,0.37h-4.48c-0.14,0-0.21,0.07-0.21,0.2v0.39c0,0.37,0.08,0.63,0.24,0.79c0.16,0.16,0.43,0.24,0.81,0.24
				h3.6c0.25,0,0.37,0.13,0.37,0.39v1.18c0,0.13-0.03,0.22-0.08,0.28C-45.11,27.3-45.21,27.33-45.35,27.33z M-49.79,22.26h2.42
				c0.13,0,0.2-0.07,0.2-0.2v-0.86c0-0.38-0.08-0.65-0.23-0.8c-0.15-0.15-0.42-0.23-0.8-0.23h-0.75c-0.38,0-0.65,0.08-0.8,0.23
				c-0.15,0.15-0.23,0.42-0.23,0.8v0.86C-49.99,22.2-49.92,22.26-49.79,22.26z"/>
			<path fill="#FFD100" d="M-36.86,27.33h-3.94c-0.94,0-1.66-0.25-2.17-0.75c-0.51-0.5-0.77-1.22-0.77-2.16v-3.28
				c0-0.94,0.25-1.66,0.77-2.16c0.51-0.5,1.24-0.75,2.17-0.75h1.41c0.94,0,1.66,0.25,2.17,0.75c0.51,0.5,0.77,1.22,0.77,2.16v2.26
				c0,0.25-0.13,0.37-0.38,0.37h-4.48c-0.14,0-0.21,0.07-0.21,0.2v0.39c0,0.37,0.08,0.63,0.24,0.79c0.16,0.16,0.43,0.24,0.81,0.24
				h3.6c0.25,0,0.37,0.13,0.37,0.39v1.18c0,0.13-0.03,0.22-0.08,0.28C-36.62,27.3-36.71,27.33-36.86,27.33z M-41.3,22.26h2.42
				c0.13,0,0.2-0.07,0.2-0.2v-0.86c0-0.38-0.08-0.65-0.23-0.8c-0.15-0.15-0.42-0.23-0.8-0.23h-0.75c-0.38,0-0.65,0.08-0.8,0.23
				c-0.15,0.15-0.23,0.42-0.23,0.8v0.86C-41.49,22.2-41.43,22.26-41.3,22.26z"/>
			<path fill="#FFD100" d="M-31.54,27.33h-3.39c-0.24,0-0.36-0.12-0.36-0.37v-1.14c0-0.13,0.02-0.22,0.07-0.28
				c0.05-0.05,0.14-0.08,0.29-0.08h2.98c0.58,0,0.87-0.18,0.87-0.54v-0.09c0-0.28-0.24-0.56-0.73-0.82l-1.77-0.98
				c-0.61-0.31-1.05-0.64-1.34-1c-0.29-0.36-0.43-0.81-0.43-1.37c0-0.83,0.22-1.44,0.66-1.84c0.44-0.39,1.13-0.59,2.07-0.59h2.98
				c0.24,0,0.36,0.13,0.36,0.38v1.16c0,0.13-0.02,0.22-0.07,0.28c-0.05,0.05-0.14,0.08-0.29,0.08h-2.48c-0.58,0-0.87,0.15-0.87,0.45
				v0.09c0,0.26,0.25,0.53,0.77,0.8l1.8,1.07c0.62,0.33,1.05,0.67,1.3,1.03c0.25,0.35,0.37,0.81,0.37,1.38
				C-28.74,26.53-29.67,27.33-31.54,27.33z"/>
		</g>
	</g>
	<g id="with_text_1_">
		<path d="M986.45,50.4c-0.1-0.15-0.21-0.3-0.32-0.45V14.54c0-2.5-2.04-4.54-4.54-4.54h-55.25c-2.5,0-4.54,2.03-4.54,4.54v35.41
			c-0.11,0.15-0.22,0.3-0.32,0.45c-0.97,1.44-3.02,5.24-1.22,9.42c0.38,0.87,0.89,1.68,1.54,2.42v1.34c0,2.51,0.64,5.26,1.8,8
			c-0.46,1.92-0.25,3.87,0.62,5.69c1.05,2.19,2.92,3.62,5.28,4.01c0.22,0.04,0.44,0.06,0.67,0.08c0.03,0.03,0.05,0.05,0.08,0.08
			c5.47,5.62,12.67,9.22,20.53,10.3c0.25,0.65,0.48,1.24,0.56,1.46c0.42,1.08,1.47,1.8,2.63,1.8s2.21-0.72,2.63-1.8
			c0.11-0.3,0.33-0.86,0.56-1.46c7.86-1.08,15.06-4.68,20.53-10.3c0.03-0.03,0.05-0.05,0.08-0.08c0.23-0.02,0.45-0.05,0.67-0.08
			c2.35-0.4,4.22-1.82,5.27-4.01c0.87-1.82,1.08-3.76,0.62-5.69c1.16-2.74,1.8-5.49,1.8-8.01v-1.34c0.64-0.74,1.16-1.54,1.54-2.42
			C989.47,55.63,987.41,51.84,986.45,50.4z"/>
		<g>
			<path fill="#FFD100" d="M982.61,64.96c-0.08,0.77-0.23,1.55-0.43,2.35c0.23,0.29,0.45,0.59,0.65,0.89
				c0.1,0.14,0.19,0.29,0.27,0.43c0.48-1.53,0.76-3.04,0.83-4.47C983.51,64.44,983.08,64.71,982.61,64.96z"/>
			<path fill="#FFD100" d="M924.83,68.63c0.09-0.14,0.18-0.29,0.27-0.43c0.2-0.3,0.42-0.6,0.65-0.89c-0.21-0.8-0.35-1.59-0.43-2.35
				c-0.47-0.25-0.9-0.52-1.31-0.8C924.07,65.59,924.35,67.09,924.83,68.63z"/>
			<path fill="#FFD100" d="M950.66,89.17c-0.11-0.35-0.16-0.67-0.16-0.96c-5.97-0.96-11.49-3.54-15.97-7.46
				c-0.49,0.16-0.97,0.29-1.44,0.39c4.88,4.49,11.03,7.4,17.69,8.38C950.72,89.37,950.68,89.25,950.66,89.17z"/>
			<path fill="#FFD100" d="M957.27,89.17c-0.02,0.07-0.07,0.19-0.12,0.35c6.67-0.98,12.81-3.88,17.69-8.38
				c-0.47-0.1-0.95-0.23-1.44-0.39c-4.48,3.92-10,6.5-15.97,7.46C957.43,88.5,957.38,88.82,957.27,89.17z"/>
			<path fill="#FFD100" d="M925.24,46.67V14.54c0-0.6,0.49-1.1,1.1-1.1h55.25c0.6,0,1.09,0.49,1.09,1.1v32.13
				c0.43,0.27,0.85,0.58,1.25,0.92V14.54c0-1.29-1.05-2.35-2.35-2.35h-55.25c-1.29,0-2.35,1.05-2.35,2.35v33.05
				C924.39,47.25,924.81,46.94,925.24,46.67z"/>
		</g>
		<path fill="#FFFFFF" d="M957.9,37.29c-1.24-0.45-2.56-0.69-3.94-0.69c-1.37,0-2.7,0.24-3.94,0.69c-0.66-3.07-2.72-5.58-5.25-6.27
			c-1.75-0.48-5.27-0.49-9.25,4.76c-0.03,0.04-0.05,0.1,0.01,0.18c0.05,0.08,0.96,0.73,1.05,0.79c0.08,0.06,0.16,0.01,0.19-0.02
			c2.54-3.35,5.23-4.84,7.59-4.2c2.07,0.57,3.75,2.76,4.2,5.42c-1.19,0.64-2.28,1.5-3.22,2.57c-2.11,2.4-3.33,5.67-3.58,9.52
			c-3.29-1.97-7.44-3.46-11.34-2.94c-2.98,0.4-5.38,1.92-7.12,4.51c-0.77,1.14-2.4,4.14-1.02,7.33c1.23,2.86,4.45,4.88,9.58,6.03
			c-2.05,1.21-3.79,2.73-4.93,4.44c-1.54,2.31-1.79,4.7-0.73,6.9c0.75,1.55,2.01,2.52,3.66,2.8c0.34,0.06,0.69,0.08,1.05,0.08
			c3.08,0,7-2.03,10.86-5.64c0.95,3.66,2.53,6.12,3.91,7.68c2.35,2.65,5.44,4.23,8.28,4.23c2.84,0,5.93-1.58,8.28-4.23
			c1.38-1.56,2.97-4.02,3.91-7.68c3.86,3.61,7.78,5.64,10.86,5.64c0.36,0,0.71-0.03,1.05-0.08c1.65-0.28,2.92-1.25,3.66-2.8
			c1.06-2.21,0.8-4.59-0.73-6.9c-1.14-1.71-2.88-3.23-4.93-4.44c5.13-1.15,8.35-3.17,9.58-6.03c1.38-3.19-0.26-6.19-1.02-7.33
			c-1.74-2.59-4.14-4.11-7.12-4.51c-3.91-0.52-8.05,0.97-11.34,2.94c-0.25-3.85-1.47-7.12-3.58-9.52c-0.94-1.07-2.02-1.93-3.22-2.57
			c0.45-2.66,2.13-4.85,4.2-5.42c2.35-0.65,5.05,0.84,7.59,4.2c0.03,0.04,0.1,0.08,0.19,0.02c0.09-0.06,1-0.71,1.05-0.79
			c0.05-0.08,0.03-0.14,0.01-0.18c-3.98-5.25-7.5-5.24-9.25-4.76C960.62,31.72,958.56,34.23,957.9,37.29z M923.71,58.33
			c-1.07-2.48,0.26-4.91,0.89-5.83c1.48-2.21,3.51-3.5,6.03-3.83c4.63-0.62,10.15,2.1,13.57,5.06c1.8,1.56,1.09,2.96-0.56,5.71
			c-0.49,0.81-1.02,1.71-1.49,2.69c-2.66-0.04-5.48,0.59-8.04,1.7C928.46,62.88,924.86,60.98,923.71,58.33z M930.12,77.57
			c-1.14-0.19-1.99-0.84-2.51-1.93c-0.82-1.71-0.61-3.51,0.62-5.36c2.43-3.64,8.2-6.45,13.29-6.59c-0.38,1.11-0.61,2.31-0.58,3.62
			c0.04,1.63,0.2,3.11,0.44,4.45C937.32,75.77,932.93,78.04,930.12,77.57z M961.08,80.2c-2.42,2.73-5.26,3.7-7.11,3.7
			c-1.85,0-4.69-0.97-7.11-3.7c-1.89-2.13-4.18-6.11-4.35-12.93c-0.07-2.76,1.29-5.03,2.49-7.04c1.53-2.56,3.12-5.21,0.24-7.7
			c-0.58-0.5-1.23-1.01-1.94-1.5c0.2-8.83,5.63-12.86,10.68-12.86c5.05,0,10.47,4.03,10.68,12.86c-0.71,0.5-1.36,1-1.94,1.5
			c-2.88,2.49-1.29,5.14,0.24,7.7c1.2,2,2.56,4.27,2.49,7.04C965.25,74.09,962.96,78.07,961.08,80.2z M979.7,70.28
			c1.23,1.85,1.44,3.65,0.62,5.36c-0.52,1.09-1.37,1.74-2.51,1.93c-2.8,0.47-7.2-1.8-11.26-5.81c0.24-1.34,0.4-2.82,0.44-4.45
			c0.03-1.31-0.2-2.52-0.58-3.62C971.5,63.83,977.28,66.64,979.7,70.28z M984.22,58.33c-1.15,2.66-4.75,4.56-10.41,5.49
			c-2.55-1.11-5.38-1.75-8.04-1.7c-0.46-0.98-1-1.87-1.49-2.69c-1.65-2.76-2.36-4.15-0.56-5.71c3.42-2.96,8.95-5.68,13.57-5.06
			c2.52,0.34,4.55,1.63,6.03,3.83C983.96,53.42,985.29,55.84,984.22,58.33z"/>
		<path fill="#FFD100" d="M959.95,56.22c-0.12-0.24-0.43-0.82-0.48-0.89c-0.06-0.1-0.15-0.06-0.19-0.04
			c-1.65,0.86-3.06,1.17-5.31,1.17s-3.66-0.31-5.31-1.17c-0.04-0.02-0.13-0.06-0.19,0.04c-0.05,0.08-0.36,0.66-0.48,0.89
			c-0.05,0.1,0.02,0.14,0.05,0.16c1.84,0.97,3.46,1.33,5.93,1.33s4.08-0.36,5.92-1.33C959.93,56.36,960,56.31,959.95,56.22z"/>
		<path fill="#FFD100" d="M963.08,63.58c-0.05-0.1-0.1-0.2-0.15-0.29c-0.71-1.45-1.6-3.25-4.21-2.59c-0.22,0.05-0.42,0.11-0.61,0.16
			c-1.45,0.38-2.18,0.56-4.15,0.56c-1.96,0-2.69-0.19-4.15-0.56c-0.19-0.05-0.39-0.1-0.61-0.16c-2.61-0.66-3.5,1.14-4.21,2.59
			c-0.05,0.1-0.1,0.2-0.15,0.29c-0.45,0.89-0.53,1.76-0.23,2.5c0.27,0.69,0.84,1.2,1.64,1.49l0.09,0.03c1.1,0.4,2.94,1.07,7.61,1.07
			c4.67,0,6.51-0.67,7.61-1.07l0.09-0.03c0.8-0.29,1.37-0.81,1.64-1.49C963.61,65.33,963.53,64.47,963.08,63.58z M962.15,65.61
			c-0.17,0.44-0.59,0.67-0.91,0.78l-0.09,0.03c-1.02,0.37-2.73,1-7.18,1c-4.45,0-6.16-0.63-7.18-1l-0.09-0.03
			c-0.32-0.12-0.74-0.35-0.91-0.78c-0.16-0.4-0.1-0.91,0.19-1.48c0.05-0.1,0.1-0.2,0.15-0.3c0.78-1.58,1.22-2.32,2.79-1.93
			c0.22,0.05,0.42,0.11,0.6,0.16c1.46,0.38,2.34,0.6,4.46,0.6s3-0.23,4.46-0.6c0.19-0.05,0.39-0.1,0.6-0.16
			c1.57-0.4,2.01,0.35,2.79,1.93c0.05,0.1,0.1,0.2,0.15,0.3C962.25,64.7,962.31,65.21,962.15,65.61z"/>
		<path fill="#FFD100" d="M962.23,72.58c-0.47-0.63-1.25-0.87-2.13-0.65c-0.21,0.05-0.44,0.12-0.71,0.2
			c-1.09,0.32-2.74,0.81-5.42,0.81s-4.33-0.49-5.42-0.81c-0.27-0.08-0.5-0.15-0.71-0.2c-0.88-0.21-1.66,0.02-2.13,0.65
			c-0.55,0.73-0.52,1.77-0.19,2.36c0.97,1.68,3.73,5.58,8.45,5.58c4.72,0,7.48-3.9,8.45-5.58
			C962.75,74.35,962.77,73.31,962.23,72.58z M961.33,74.31c-0.86,1.49-3.3,4.95-7.36,4.95c-4.06,0-6.5-3.46-7.36-4.95
			c-0.11-0.19-0.12-0.68,0.11-0.98c0.06-0.08,0.25-0.33,0.83-0.19c0.18,0.04,0.4,0.11,0.65,0.18c1.09,0.32,2.91,0.86,5.78,0.86
			s4.69-0.54,5.78-0.86c0.25-0.07,0.47-0.14,0.65-0.18c0.59-0.14,0.77,0.1,0.83,0.19C961.45,73.63,961.44,74.12,961.33,74.31z"/>
		<path fill="#D9272E" d="M953.97,92.81c-0.26,0-0.49-0.16-0.58-0.4c-0.13-0.33-1.24-3.22-1.38-3.66c-0.2-0.62-0.05-1.01,0.11-1.23
			c0.15-0.21,0.45-0.45,1.02-0.45h1.66c0.57,0,0.87,0.25,1.02,0.45c0.16,0.22,0.31,0.61,0.11,1.23c-0.14,0.44-1.25,3.33-1.38,3.66
			C954.46,92.65,954.22,92.81,953.97,92.81z M953.18,88.32c0,0.02,0.01,0.03,0.01,0.05c0.06,0.2,0.4,1.1,0.77,2.07
			c0.37-0.96,0.71-1.87,0.77-2.07c0.01-0.02,0.01-0.03,0.01-0.05H953.18z"/>
		<g>
			<path fill="#D9272E" d="M930.75,27.33h-1.52c-0.25,0-0.37-0.12-0.37-0.37V16.24c0-0.25,0.12-0.37,0.37-0.37h4.24
				c0.93,0,1.65,0.26,2.17,0.77c0.52,0.51,0.78,1.23,0.78,2.16v1.39c0,1.34-0.53,2.23-1.58,2.67v0.07l1.9,3.98
				c0.11,0.29,0.01,0.43-0.3,0.43h-1.44c-0.21,0-0.37-0.02-0.46-0.07c-0.1-0.05-0.17-0.15-0.23-0.3l-1.78-3.85h-1.19
				c-0.14,0-0.21,0.07-0.21,0.2v3.66C931.13,27.2,931,27.33,930.75,27.33z M931.32,21.28h1.75c0.38,0,0.66-0.08,0.84-0.24
				c0.18-0.16,0.27-0.42,0.27-0.78v-1.39c0-0.37-0.09-0.64-0.27-0.8c-0.18-0.17-0.46-0.25-0.84-0.25h-1.75c-0.13,0-0.2,0.07-0.2,0.2
				v3.07C931.13,21.22,931.19,21.28,931.32,21.28z"/>
			<path fill="#D9272E" d="M942.05,27.33h-3.86c-0.3,0-0.45-0.16-0.45-0.47v-1.02c0-0.16,0.03-0.28,0.09-0.35
				c0.06-0.07,0.18-0.1,0.36-0.1h3.75c0.73,0,1.1-0.28,1.1-0.73V24.3c0-0.64-0.31-0.82-0.92-1.15l-2.23-1.24
				c-0.76-0.39-1.33-0.81-1.69-1.26c-0.36-0.45-0.54-1.03-0.54-1.73c0-1.05,0.28-1.82,0.83-2.32c0.55-0.49,1.42-0.74,2.61-0.74h3.75
				c0.3,0,0.45,0.16,0.45,0.47v1.04c0,0.17-0.03,0.28-0.09,0.35c-0.06,0.07-0.18,0.1-0.36,0.1h-3.54c-0.73,0-1.1,0.32-1.1,0.7v0.4
				c0,0.33,0.32,0.67,0.97,1.01l2.27,1.35c0.78,0.42,1.33,0.85,1.64,1.29c0.32,0.44,0.47,1.02,0.47,1.74
				C945.58,26.32,944.4,27.33,942.05,27.33z"/>
			<path fill="#FFD100" d="M946.77,26.95V16.24c0-0.25,0.13-0.37,0.37-0.37h4.28c0.94,0,1.66,0.25,2.17,0.75
				c0.51,0.5,0.77,1.21,0.77,2.14v0.73c0,1.01-0.47,1.66-1.41,1.96c0.48,0.07,0.86,0.26,1.14,0.58c0.29,0.32,0.43,0.76,0.43,1.35
				v1.07c0,0.93-0.26,1.64-0.77,2.14c-0.51,0.5-1.23,0.75-2.16,0.75h-4.46C946.89,27.33,946.77,27.2,946.77,26.95z M949.23,20.52
				h1.82c0.38,0,0.66-0.08,0.84-0.24c0.18-0.16,0.27-0.42,0.27-0.79v-0.7c0-0.37-0.09-0.63-0.26-0.79
				c-0.17-0.16-0.45-0.24-0.83-0.24h-1.84c-0.13,0-0.2,0.06-0.2,0.2v2.37C949.03,20.45,949.1,20.52,949.23,20.52z M949.23,25.44h2
				c0.39,0,0.68-0.08,0.85-0.24s0.26-0.42,0.26-0.79v-1.03c0-0.37-0.09-0.63-0.27-0.78c-0.18-0.15-0.47-0.23-0.87-0.23h-1.96
				c-0.13,0-0.2,0.07-0.2,0.2v2.69C949.03,25.37,949.1,25.44,949.23,25.44z"/>
			<path fill="#FFD100" d="M962.58,27.33h-3.94c-0.94,0-1.66-0.25-2.18-0.75c-0.51-0.5-0.77-1.22-0.77-2.16v-3.28
				c0-0.94,0.26-1.66,0.77-2.16c0.51-0.5,1.24-0.75,2.18-0.75h1.41c0.94,0,1.66,0.25,2.18,0.75c0.51,0.5,0.77,1.22,0.77,2.16v2.26
				c0,0.25-0.13,0.37-0.38,0.37h-4.48c-0.14,0-0.21,0.07-0.21,0.2v0.39c0,0.37,0.08,0.63,0.24,0.79c0.16,0.16,0.43,0.24,0.81,0.24
				h3.6c0.25,0,0.37,0.13,0.37,0.39v1.18c0,0.13-0.03,0.22-0.08,0.28C962.82,27.3,962.72,27.33,962.58,27.33z M958.14,22.26h2.42
				c0.13,0,0.2-0.07,0.2-0.2v-0.86c0-0.38-0.08-0.65-0.23-0.8s-0.42-0.23-0.8-0.23h-0.75c-0.38,0-0.65,0.08-0.8,0.23
				c-0.16,0.15-0.23,0.42-0.23,0.8v0.86C957.94,22.2,958.01,22.26,958.14,22.26z"/>
			<path fill="#FFD100" d="M971.08,27.33h-3.94c-0.94,0-1.66-0.25-2.17-0.75c-0.51-0.5-0.77-1.22-0.77-2.16v-3.28
				c0-0.94,0.25-1.66,0.77-2.16c0.51-0.5,1.24-0.75,2.17-0.75h1.41c0.94,0,1.66,0.25,2.17,0.75c0.51,0.5,0.77,1.22,0.77,2.16v2.26
				c0,0.25-0.13,0.37-0.38,0.37h-4.47c-0.14,0-0.21,0.07-0.21,0.2v0.39c0,0.37,0.08,0.63,0.24,0.79c0.16,0.16,0.43,0.24,0.81,0.24
				h3.6c0.25,0,0.38,0.13,0.38,0.39v1.18c0,0.13-0.03,0.22-0.08,0.28C971.32,27.3,971.22,27.33,971.08,27.33z M966.64,22.26h2.42
				c0.13,0,0.2-0.07,0.2-0.2v-0.86c0-0.38-0.08-0.65-0.23-0.8c-0.16-0.15-0.42-0.23-0.8-0.23h-0.75c-0.38,0-0.65,0.08-0.8,0.23
				c-0.15,0.15-0.23,0.42-0.23,0.8v0.86C966.44,22.2,966.51,22.26,966.64,22.26z"/>
			<path fill="#FFD100" d="M976.39,27.33h-3.39c-0.24,0-0.36-0.12-0.36-0.37v-1.14c0-0.13,0.02-0.22,0.07-0.28
				c0.05-0.05,0.14-0.08,0.29-0.08h2.98c0.58,0,0.87-0.18,0.87-0.54v-0.09c0-0.28-0.24-0.56-0.73-0.82l-1.76-0.98
				c-0.61-0.31-1.05-0.64-1.34-1c-0.29-0.36-0.43-0.81-0.43-1.37c0-0.83,0.22-1.44,0.66-1.84c0.44-0.39,1.13-0.59,2.07-0.59h2.98
				c0.24,0,0.36,0.13,0.36,0.38v1.16c0,0.13-0.02,0.22-0.07,0.28c-0.05,0.05-0.14,0.08-0.29,0.08h-2.48c-0.58,0-0.87,0.15-0.87,0.45
				v0.09c0,0.26,0.25,0.53,0.77,0.8l1.8,1.07c0.62,0.33,1.05,0.67,1.3,1.03c0.25,0.35,0.38,0.81,0.38,1.38
				C979.2,26.53,978.26,27.33,976.39,27.33z"/>
		</g>
	</g>
</g>
</svg>
